<svg xmlns="http://www.w3.org/2000/svg" xmlns:xlink="http://www.w3.org/1999/xlink" width="500" zoomAndPan="magnify" viewBox="0 0 375 374.999991" height="500" preserveAspectRatio="xMidYMid meet" version="1.0"><defs><clipPath id="5406ace5c0"><path d="M 157 49 L 375 49 L 375 360.28125 L 157 360.28125 Z M 157 49 " clip-rule="nonzero"/></clipPath><clipPath id="5b2b214f22"><path d="M 33 14.53125 L 226 14.53125 L 226 104 L 33 104 Z M 33 14.53125 " clip-rule="nonzero"/></clipPath></defs><g clip-path="url(#5406ace5c0)"><path fill="#ff3131" d="M 199 360.195312 C 196.457031 356.765625 194.679688 353.207031 192.773438 349.519531 C 178.667969 323.089844 169.390625 295.132812 163.671875 266.03125 C 160.371094 249.132812 158.589844 231.976562 157.574219 214.820312 C 156.8125 198.808594 156.9375 182.925781 157.828125 167.039062 C 158.210938 159.289062 159.097656 151.792969 159.605469 144.039062 C 159.734375 142.894531 160.113281 142.515625 161.257812 142.132812 C 169.136719 140.101562 176.890625 140.992188 184.515625 143.277344 C 195.441406 146.328125 204.71875 152.554688 213.234375 159.925781 C 213.742188 160.304688 214.121094 160.8125 215.140625 161.195312 C 215.394531 156.746094 213.996094 152.808594 211.453125 148.488281 C 226.195312 151.792969 238.140625 158.90625 249.703125 167.675781 C 250.210938 163.863281 250.339844 160.558594 248.558594 157.128906 C 260.503906 161.957031 269.398438 170.472656 277.789062 179.621094 C 277.023438 175.300781 275.5 171.363281 273.59375 167.421875 C 263.300781 146.328125 246.273438 132.984375 223.398438 125.996094 C 205.609375 120.660156 187.5625 121.039062 169.519531 125.105469 C 169.011719 125.234375 168.628906 125.488281 167.738281 125.105469 C 173.964844 118.753906 181.210938 114.6875 189.597656 112.015625 C 197.855469 109.347656 206.496094 108.203125 215.648438 107.824219 C 213.742188 105.917969 211.960938 104.773438 210.054688 103.503906 C 208.148438 102.359375 205.988281 101.722656 203.449219 100.960938 C 216.15625 93.210938 229.878906 90.160156 244.238281 88.507812 C 242.078125 85.203125 239.410156 82.917969 235.851562 81.773438 C 247.925781 77.199219 260.25 77.070312 272.832031 77.960938 C 272.703125 77.199219 272.195312 77.199219 271.6875 76.816406 C 257.710938 69.066406 242.839844 66.144531 226.957031 67.667969 C 205.226562 69.699219 187.183594 79.359375 171.933594 94.226562 C 167.738281 98.421875 163.925781 102.867188 160.496094 107.570312 C 160.242188 107.949219 159.859375 108.332031 159.226562 109.09375 C 158.84375 107.1875 159.351562 105.664062 159.605469 104.265625 C 164.5625 76.5625 181.972656 59.789062 209.546875 52.800781 C 228.734375 47.972656 247.796875 49.367188 266.476562 55.722656 C 290.621094 63.984375 311.589844 77.070312 329.378906 94.988281 C 352.125 117.355469 366.484375 144.292969 372.457031 175.300781 C 373.730469 181.398438 374.363281 187.5 374.746094 193.601562 C 374.746094 194.109375 374.871094 194.742188 375 195.25 C 375 200.714844 375 206.054688 375 211.644531 C 374.871094 212.152344 374.746094 212.914062 374.746094 213.421875 C 374.363281 220.414062 373.347656 227.527344 371.949219 234.390625 C 364.453125 268.445312 347.296875 297.167969 320.613281 320.421875 C 297.863281 340.117188 271.433594 352.699219 241.316406 358.164062 C 236.359375 359.050781 231.277344 359.558594 226.320312 360.195312 C 217.046875 360.195312 208.148438 360.195312 199 360.195312 Z M 199 360.195312 " fill-opacity="1" fill-rule="nonzero"/></g><g clip-path="url(#5b2b214f22)"><path fill="#ff3131" d="M 209.167969 14.804688 C 213.488281 15.441406 217.808594 15.695312 222.128906 16.582031 C 223.273438 16.835938 224.289062 16.835938 225.433594 17.472656 C 221.367188 17.21875 217.425781 17.347656 213.359375 17.726562 C 193.789062 19.125 176.253906 25.480469 162.53125 39.457031 C 152.617188 49.496094 147.152344 61.441406 144.738281 75.039062 C 143.085938 84.316406 143.214844 93.71875 144.613281 102.996094 C 144.613281 103.25 144.738281 103.503906 144.359375 103.882812 C 142.453125 101.722656 140.546875 99.5625 138.640625 97.53125 C 120.847656 77.960938 98.609375 66.269531 71.796875 62.585938 C 59.34375 60.804688 47.019531 60.804688 34.566406 62.203125 C 34.308594 62.203125 34.054688 62.332031 33.421875 61.949219 C 50.320312 53.5625 67.859375 49.75 86.664062 52.800781 C 105.472656 55.851562 120.722656 64.871094 133.683594 78.722656 C 134.066406 75.800781 134.445312 73.132812 134.953125 70.589844 C 137.242188 57.628906 142.070312 45.554688 151.347656 35.519531 C 161.894531 23.828125 175.363281 17.726562 191.25 15.441406 C 193.027344 15.183594 194.808594 15.058594 196.714844 14.804688 C 200.90625 14.804688 204.972656 14.804688 209.167969 14.804688 Z M 209.167969 14.804688 " fill-opacity="1" fill-rule="nonzero"/></g><path fill="#ff3131" d="M 139.78125 343.421875 C 138.894531 343.675781 138.386719 343.292969 137.878906 343.039062 C 101.660156 324.488281 76.246094 296.65625 61.125 259.933594 C 55.023438 245.191406 51.71875 229.941406 50.574219 214.1875 C 48.925781 190.296875 52.738281 167.296875 61.886719 144.929688 C 62.519531 143.40625 63.410156 142.515625 64.9375 141.878906 C 73.195312 138.574219 81.582031 136.289062 90.476562 135.527344 C 91.367188 135.398438 92.382812 135.273438 93.527344 135.652344 C 90.476562 139.085938 88.445312 142.640625 87.554688 147.597656 C 102.421875 138.957031 117.417969 132.859375 135.207031 135.398438 C 134.320312 136.289062 133.429688 136.542969 132.667969 136.925781 C 115.765625 143.660156 101.152344 153.445312 89.96875 167.675781 C 78.53125 182.164062 72.433594 198.554688 72.6875 216.855469 C 72.8125 224.734375 74.339844 232.230469 77.136719 239.601562 C 77.261719 239.855469 77.390625 240.109375 77.644531 240.871094 C 79.167969 228.292969 81.457031 216.347656 88.316406 205.800781 C 88.953125 209.484375 90.730469 212.28125 93.78125 214.949219 C 98.101562 201.476562 103.820312 189.023438 114.113281 178.351562 C 114.367188 183.179688 115.765625 187.246094 118.6875 191.183594 C 122.5 176.316406 127.964844 162.847656 140.164062 152.808594 C 131.90625 216.09375 131.394531 279.882812 139.78125 343.421875 Z M 139.78125 343.421875 " fill-opacity="1" fill-rule="nonzero"/><path fill="#ff3131" d="M 107.761719 112.78125 C 107.125 113.035156 106.363281 112.652344 105.726562 112.398438 C 94.925781 109.09375 83.871094 107.316406 72.433594 107.695312 C 49.8125 108.332031 30.117188 115.828125 14.105469 131.714844 C 8.769531 137.050781 4.703125 143.023438 1.269531 149.757812 C 1.015625 150.140625 1.015625 150.902344 0 151.15625 C 0.507812 149.378906 0.890625 147.851562 1.523438 146.453125 C 8.132812 127.902344 19.570312 113.796875 37.613281 104.648438 C 46.507812 100.070312 56.292969 97.785156 66.332031 96.894531 C 73.832031 96.386719 81.074219 96.894531 88.316406 98.039062 C 90.730469 98.421875 92.765625 99.4375 94.796875 100.707031 C 99.375 104.011719 103.3125 107.695312 107.125 111.761719 C 107.507812 112.144531 107.886719 112.398438 107.761719 112.78125 Z M 107.761719 112.78125 " fill-opacity="1" fill-rule="nonzero"/></svg>