<svg xmlns="http://www.w3.org/2000/svg" xmlns:xlink="http://www.w3.org/1999/xlink" width="500" zoomAndPan="magnify" viewBox="0 0 375 374.999991" height="500" preserveAspectRatio="xMidYMid meet" version="1.0"><defs><g/><clipPath id="0aa7cf4834"><path d="M 6.976562 5.710938 L 367.726562 5.710938 L 367.726562 366.460938 L 6.976562 366.460938 Z M 6.976562 5.710938 " clip-rule="nonzero"/></clipPath><clipPath id="04993dbf92"><path d="M 187.5 5.710938 C 87.800781 5.710938 6.976562 86.53125 6.976562 186.230469 C 6.976562 285.929688 87.800781 366.753906 187.5 366.753906 C 287.199219 366.753906 368.019531 285.929688 368.019531 186.230469 C 368.019531 86.53125 287.199219 5.710938 187.5 5.710938 Z M 187.5 5.710938 " clip-rule="nonzero"/></clipPath><clipPath id="de7196c981"><path d="M 71.289062 90 L 303.707031 90 L 303.707031 282 L 71.289062 282 Z M 71.289062 90 " clip-rule="nonzero"/></clipPath></defs><g clip-path="url(#0aa7cf4834)"><g clip-path="url(#04993dbf92)"><path stroke-linecap="butt" transform="matrix(0.75, 0, 0, 0.75, 6.976724, 5.710281)" fill="none" stroke-linejoin="miter" d="M 240.697717 0.000874713 C 107.765417 0.000874713 -0.000215176 107.761298 -0.000215176 240.693599 C -0.000215176 373.625899 107.765417 481.391531 240.697717 481.391531 C 373.630018 481.391531 481.390441 373.625899 481.390441 240.693599 C 481.390441 107.761298 373.630018 0.000874713 240.697717 0.000874713 Z M 240.697717 0.000874713 " stroke="#ffde59" stroke-width="6" stroke-opacity="1" stroke-miterlimit="4"/></g></g><g fill="#ffde59" fill-opacity="1"><g transform="translate(114.643363, 85.933168)"><g><path d="M 4.695312 -6.503906 L -8.820312 -28.804688 L -11.816406 -26.988281 L 3.320312 -2.011719 L 18.089844 -10.960938 L 16.46875 -13.640625 Z M 4.695312 -6.503906 "/></g></g></g><g fill="#ffde59" fill-opacity="1"><g transform="translate(135.354001, 73.205522)"><g><path d="M 4.8125 -9.171875 L 18.691406 -13.714844 L 24.1875 -7.917969 L 27.597656 -9.035156 L 27.453125 -9.46875 L 5.664062 -32.714844 L 4.160156 -32.222656 L 0.214844 -0.554688 L 0.355469 -0.117188 L 3.804688 -1.246094 Z M 4.988281 -12.386719 L 6.574219 -27.261719 L 16.644531 -16.203125 Z M 4.988281 -12.386719 "/></g></g></g><g fill="#ffde59" fill-opacity="1"><g transform="translate(166.294786, 64.26603)"><g/></g></g><g fill="#ffde59" fill-opacity="1"><g transform="translate(179.886067, 62.028478)"><g><path d="M 3.875 0.1875 L 7.335938 0.359375 L 7.785156 -8.894531 L 15.996094 -8.492188 C 22.164062 -8.191406 26.417969 -12.371094 26.6875 -17.914062 C 26.960938 -23.496094 23.21875 -28.109375 16.96875 -28.414062 L 5.296875 -28.980469 Z M 16.148438 -11.617188 L 7.894531 -12.019531 L 8.566406 -25.730469 L 16.816406 -25.328125 C 20.816406 -25.132812 23.511719 -22.121094 23.316406 -18.160156 C 23.121094 -14.117188 20.023438 -11.429688 16.148438 -11.617188 Z M 16.148438 -11.617188 "/></g></g></g><g fill="#ffde59" fill-opacity="1"><g transform="translate(209.248659, 63.599539)"><g><path d="M 9.214844 -4.726562 L 23.175781 -0.449219 L 24.335938 7.453125 L 27.765625 8.503906 L 27.898438 8.0625 L 23.46875 -23.488281 L 21.953125 -23.953125 L 0.492188 -0.328125 L 0.359375 0.109375 L 3.828125 1.171875 Z M 11.210938 -7.257812 L 21.070312 -18.507812 L 22.941406 -3.664062 Z M 11.210938 -7.257812 "/></g></g></g><g fill="#ffde59" fill-opacity="1"><g transform="translate(239.460838, 73.458809)"><g><path d="M 34.285156 -12.992188 L 34.5625 -13.460938 L 16.617188 -24.101562 L 15.042969 -21.445312 L 28.285156 -13.59375 L 0.988281 0.0507812 L 0.753906 0.445312 L 19.703125 11.683594 L 21.320312 8.953125 L 7.070312 0.507812 Z M 34.285156 -12.992188 "/></g></g></g><g fill="#ffde59" fill-opacity="1"><g transform="translate(51.628435, 270.610095)"><g><path d="M 24.289062 4.347656 L 13.078125 7.589844 L 13.054688 7.554688 L 19.3125 -2.347656 L 26.175781 -13.742188 L 23.960938 -16.722656 L 23.558594 -16.425781 L 7.714844 10.585938 L 8.585938 11.757812 L 38.96875 4.300781 L 39.371094 4 L 37.152344 1.023438 Z M 24.289062 4.347656 "/></g></g></g><g fill="#ffde59" fill-opacity="1"><g transform="translate(78.906337, 303.564907)"><g><path d="M 32.605469 -7.503906 L 34.5 -9.890625 L 21.207031 -20.453125 L 3.039062 2.414062 L 16.691406 13.261719 L 18.691406 10.746094 L 7.78125 2.078125 L 14.21875 -6.023438 L 24.410156 2.074219 L 26.304688 -0.308594 L 16.113281 -8.40625 L 22.054688 -15.886719 Z M 32.605469 -7.503906 "/></g></g></g><g fill="#ffde59" fill-opacity="1"><g transform="translate(110.486457, 326.62372)"><g><path d="M 15.078125 -17.59375 L 24.046875 10.195312 L 25.085938 10.632812 L 36.472656 -16.351562 L 33.246094 -17.714844 L 27.921875 -5.105469 L 25.007812 2.765625 L 16.078125 -25.003906 L 14.964844 -25.476562 L 3.574219 1.507812 L 6.765625 2.855469 L 12.234375 -10.097656 Z M 15.078125 -17.59375 "/></g></g></g><g fill="#ffde59" fill-opacity="1"><g transform="translate(154.139697, 342.218233)"><g><path d="M 4.132812 -25.757812 L 13.066406 -24.585938 L 9.679688 1.269531 L 13.03125 1.707031 L 16.417969 -24.148438 L 25.351562 -22.976562 L 25.761719 -26.082031 L 4.539062 -28.859375 Z M 4.132812 -25.757812 "/></g></g></g><g fill="#ffde59" fill-opacity="1"><g transform="translate(192.156744, 345.60321)"><g><path d="M 14.730469 -1.597656 C 20.972656 -2.433594 25.230469 -6.792969 24.359375 -13.285156 L 21.796875 -32.390625 L 18.40625 -31.9375 L 20.960938 -12.875 C 21.578125 -8.285156 18.695312 -5.285156 14.3125 -4.699219 C 9.890625 -4.105469 6.320312 -6.234375 5.703125 -10.824219 L 3.144531 -29.890625 L -0.328125 -29.421875 L 2.234375 -10.320312 C 3.105469 -3.828125 8.445312 -0.753906 14.730469 -1.597656 Z M 14.730469 -1.597656 "/></g></g></g><g fill="#ffde59" fill-opacity="1"><g transform="translate(236.299404, 337.386268)"><g><path d="M 24.316406 -11.246094 L 12.453125 -17.695312 C 15.792969 -20.257812 17.152344 -24.320312 15.335938 -28.445312 C 13.203125 -33.292969 7.929688 -35.441406 2.429688 -33.019531 L -8.226562 -28.332031 L 3.550781 -1.5625 L 6.757812 -2.972656 L 2.441406 -12.789062 L 9.429688 -15.863281 L 21.15625 -9.308594 L 24.519531 -10.785156 Z M 8.730469 -18.699219 L 1.246094 -15.40625 L -3.8125 -26.902344 L 3.671875 -30.195312 C 7.148438 -31.722656 10.714844 -30.558594 12.226562 -27.121094 C 13.753906 -23.644531 12.128906 -20.195312 8.730469 -18.699219 Z M 8.730469 -18.699219 "/></g></g></g><g fill="#ffde59" fill-opacity="1"><g transform="translate(274.882632, 317.934401)"><g><path d="M -0.09375 -33.460938 L -1.996094 -35.835938 L -15.246094 -25.210938 L 3.027344 -2.425781 L 16.632812 -13.339844 L 14.621094 -15.84375 L 3.75 -7.125 L -2.722656 -15.199219 L 7.433594 -23.34375 L 5.527344 -25.71875 L -4.628906 -17.574219 L -10.605469 -25.027344 Z M -0.09375 -33.460938 "/></g></g></g><g fill="#ffde59" fill-opacity="1"><g transform="translate(304.113948, 292.243689)"><g><path d="M -3.230469 -9.03125 L -5.238281 -6.316406 C -0.285156 -2.910156 5.316406 -6.34375 8.441406 -10.777344 C 11.492188 -15.109375 13.355469 -21.207031 8.328125 -24.929688 C 3.128906 -28.777344 -0.9375 -25.035156 -4.921875 -20.769531 C -7.402344 -18.195312 -10.042969 -14.90625 -13.53125 -17.488281 C -16.617188 -19.769531 -15.304688 -23.785156 -13.394531 -26.367188 C -11.410156 -29.050781 -8.238281 -31.582031 -5.054688 -29.640625 L -3.121094 -32.257812 C -7.804688 -35.464844 -12.957031 -32.21875 -15.960938 -28.160156 C -19.011719 -24.035156 -20.183594 -18.101562 -15.558594 -14.679688 C -10.863281 -11.203125 -6.578125 -14.675781 -2.988281 -18.613281 C -0.195312 -21.476562 2.5 -24.984375 6.292969 -22.179688 C 9.636719 -19.546875 8.054688 -15.371094 5.96875 -12.554688 C 3.835938 -9.671875 0.046875 -6.867188 -3.230469 -9.03125 Z M -3.230469 -9.03125 "/></g></g></g><g clip-path="url(#de7196c981)"><path fill="#ffde59" d="M 227.714844 90.996094 C 241.121094 93.480469 244.085938 111.636719 231.742188 115.667969 C 221.679688 118.957031 211.300781 109.273438 214.015625 99.125 C 215.542969 93.417969 221.546875 89.855469 227.714844 90.996094 M 223.011719 91.835938 C 214.886719 93.65625 211.757812 102.847656 216.902344 109.804688 C 222.882812 117.890625 234.664062 117.183594 238.082031 108.53125 C 241.457031 99.988281 232.238281 89.773438 223.011719 91.835938 M 147.257812 108.449219 C 148.570312 108.761719 148.890625 109.253906 152.296875 116.09375 C 157.375 126.292969 161.546875 133.554688 166.492188 140.796875 C 168.574219 143.851562 173.828125 150.894531 174.425781 151.433594 C 174.613281 151.605469 174.65625 151.574219 175.847656 150.4375 C 179.15625 147.28125 181.035156 146.183594 183.140625 146.183594 C 184.886719 146.183594 185.578125 146.722656 188.226562 150.164062 C 192.683594 155.953125 197.472656 160.65625 203.265625 164.941406 C 203.835938 165.359375 204.929688 166.167969 205.699219 166.738281 L 207.097656 167.777344 L 207.699219 167.21875 C 209.167969 165.859375 211.246094 164.332031 214.707031 162.085938 C 218.617188 159.542969 219.546875 158.800781 221.003906 157.046875 C 222.8125 154.878906 223.261719 154.859375 227.5625 156.761719 C 231.101562 158.332031 233.820312 159.371094 234.101562 159.261719 C 234.167969 159.238281 234.5 158.746094 234.835938 158.175781 C 235.875 156.410156 237.488281 154.367188 240.230469 151.34375 C 243.503906 147.738281 245.273438 145.695312 250.039062 140.03125 C 254.339844 134.917969 254.386719 134.875 255.53125 134.875 C 256.605469 134.875 256.917969 135.136719 259.539062 138.277344 C 263.628906 143.171875 266.148438 145.703125 271.546875 150.332031 C 276.382812 154.472656 278.121094 156.660156 278.707031 159.316406 C 278.855469 159.992188 278.859375 159.992188 279.476562 159.554688 C 281.753906 157.933594 282.644531 158.203125 288.207031 162.1875 C 291.675781 164.671875 296 167.6875 298.667969 169.480469 C 301.855469 171.625 303.722656 173.167969 303.722656 173.65625 C 303.722656 174.707031 298.722656 171.753906 288.808594 164.84375 C 281.730469 159.90625 282.027344 160.015625 279.914062 161.609375 C 278.53125 162.652344 277.53125 162.433594 277.148438 161.003906 C 276.191406 157.425781 275.242188 156.230469 269.097656 150.828125 C 264.53125 146.816406 261.441406 143.710938 256.6875 138.351562 C 255.632812 137.160156 255.539062 137.09375 255.257812 137.347656 C 254.992188 137.589844 253.285156 139.726562 250.480469 143.332031 C 246.554688 148.378906 245.433594 149.742188 240.730469 155.1875 C 238.925781 157.28125 237.878906 158.628906 235.917969 161.394531 C 233.289062 165.101562 233.398438 164.960938 232.582031 165.769531 C 231.898438 166.445312 231.5625 166.632812 231.421875 166.402344 C 231.226562 166.089844 232.140625 163.335938 233.019531 161.589844 C 233.453125 160.730469 233.566406 160.851562 232.003906 160.445312 C 229.949219 159.90625 228.4375 159.367188 225.011719 157.949219 C 223.457031 157.300781 223.53125 157.285156 222.648438 158.5625 C 221.074219 160.851562 219.625 162.132812 214.304688 165.945312 C 210.328125 168.800781 209.582031 169.449219 205.148438 173.902344 C 200.644531 178.425781 199.601562 179.300781 199.292969 178.804688 C 199.230469 178.703125 199.523438 177.832031 199.804688 177.285156 L 199.960938 176.984375 L 199.714844 177.167969 C 199.207031 177.546875 198.777344 178.464844 197.34375 182.207031 C 195.742188 186.390625 194.851562 187.75 192.675781 189.320312 C 191.546875 190.140625 190.984375 190.792969 189.65625 192.816406 C 188.035156 195.296875 187.695312 195.664062 183.785156 199.203125 C 179.546875 203.042969 172.207031 209.757812 170.625 211.242188 C 169.992188 211.839844 168.957031 212.714844 168.324219 213.191406 C 166.992188 214.199219 167.019531 214.160156 167.445312 214.285156 C 167.671875 214.351562 167.832031 214.496094 167.972656 214.761719 L 168.171875 215.144531 L 167.9375 215.335938 C 167.808594 215.445312 167.527344 215.582031 167.3125 215.648438 C 166.730469 215.820312 166.839844 215.945312 167.496094 215.859375 C 170.28125 215.492188 171.976562 215.867188 177.078125 217.984375 C 183.507812 220.652344 185.488281 220.804688 190.738281 219.035156 C 194.71875 217.695312 195.1875 217.707031 198.082031 219.234375 C 199.359375 219.90625 199.464844 219.945312 200.003906 219.914062 L 200.578125 219.886719 L 199.585938 219.59375 C 198.394531 219.242188 196.824219 218.546875 196.875 218.394531 C 196.890625 218.332031 197.195312 218.269531 197.550781 218.253906 C 197.980469 218.234375 198.21875 218.175781 198.273438 218.078125 C 198.316406 218 198.460938 217.933594 198.585938 217.933594 C 199.429688 217.933594 199.488281 217.804688 198.734375 217.59375 C 197.660156 217.289062 197.667969 217.078125 198.765625 216.980469 L 199.59375 216.902344 L 198.816406 216.734375 C 197.628906 216.476562 197.550781 216.269531 198.605469 216.160156 L 199.164062 216.101562 L 198.855469 215.972656 C 198.53125 215.839844 198.460938 215.695312 198.65625 215.574219 C 198.722656 215.535156 198.640625 215.449219 198.449219 215.371094 C 198.105469 215.226562 198.085938 215.066406 198.390625 214.890625 C 198.492188 214.832031 198.652344 214.707031 198.75 214.617188 C 198.949219 214.429688 199.960938 214.03125 200.242188 214.03125 C 200.417969 214.03125 200.429688 213.96875 200.375 213.15625 C 200.175781 210.085938 201.386719 209.519531 201.671875 212.546875 L 201.785156 213.738281 L 202.191406 213.683594 C 203.042969 213.566406 203.441406 214.125 202.808594 214.554688 C 202.5625 214.722656 202.484375 214.832031 202.542969 214.929688 C 202.589844 215.003906 202.605469 215.125 202.578125 215.199219 C 202.550781 215.273438 202.589844 215.332031 202.667969 215.332031 C 202.746094 215.332031 202.933594 215.460938 203.085938 215.617188 L 203.359375 215.90625 L 203.058594 216.160156 C 202.785156 216.390625 202.773438 216.417969 202.953125 216.464844 C 203.464844 216.597656 203.238281 217.128906 202.660156 217.140625 L 202.296875 217.148438 L 202.761719 217.273438 C 203.585938 217.496094 203.921875 217.820312 203.628906 218.113281 C 203.535156 218.207031 203.542969 218.234375 203.664062 218.234375 C 204.300781 218.234375 204.828125 219.085938 204.390625 219.40625 L 204.128906 219.597656 L 204.539062 219.867188 C 205.070312 220.21875 205.054688 220.628906 204.503906 220.640625 C 204.386719 220.644531 204.511719 220.726562 204.785156 220.835938 C 205.050781 220.941406 205.34375 221.09375 205.433594 221.171875 C 205.609375 221.332031 206.921875 221.449219 210.601562 221.636719 C 220.027344 222.121094 224.296875 223.085938 230.117188 226.042969 C 232.523438 227.269531 237.855469 230.308594 238.984375 231.101562 C 239.660156 231.578125 239.761719 231.621094 239.933594 231.5 C 240.039062 231.429688 241.5 230.625 243.175781 229.71875 C 244.855469 228.808594 247.421875 227.394531 248.878906 226.570312 C 250.339844 225.75 252.015625 224.816406 252.605469 224.5 C 253.871094 223.824219 253.757812 223.988281 253.6875 222.945312 L 253.632812 222.101562 L 253.261719 222.703125 C 252.304688 224.257812 252.117188 223.367188 252.882812 220.917969 C 253.039062 220.417969 253.132812 220.050781 253.09375 220.097656 C 253.054688 220.148438 252.871094 220.378906 252.691406 220.609375 C 252.375 221.027344 252.097656 221.160156 252.070312 220.910156 C 252.046875 220.675781 252.097656 219.785156 252.140625 219.621094 C 252.175781 219.507812 252.132812 219.460938 252.011719 219.472656 C 251.816406 219.488281 251.789062 218.609375 251.96875 218.117188 C 252.03125 217.953125 252.015625 217.855469 251.910156 217.78125 C 251.792969 217.695312 251.785156 217.597656 251.863281 217.308594 C 251.941406 217.03125 251.933594 216.9375 251.832031 216.898438 C 251.667969 216.832031 251.765625 216.363281 252.179688 215.226562 C 252.367188 214.714844 252.421875 214.457031 252.335938 214.53125 C 251.941406 214.855469 251.910156 214.511719 252.226562 213.417969 C 252.4375 212.679688 252.445312 212.609375 252.285156 212.804688 C 251.714844 213.507812 251.667969 212.867188 252.175781 211.328125 C 252.328125 210.863281 252.554688 210.035156 252.679688 209.492188 C 252.800781 208.949219 253.011719 208.1875 253.144531 207.796875 C 253.441406 206.917969 253.441406 206.847656 253.148438 207.1875 C 252.261719 208.222656 252.421875 205.917969 253.457031 202.789062 C 253.863281 201.554688 254.136719 201.160156 254.648438 201.0625 C 255.097656 200.976562 255.175781 201.066406 255.25 201.730469 C 255.292969 202.121094 255.515625 202.683594 256.027344 203.722656 C 256.417969 204.523438 256.839844 205.402344 256.960938 205.675781 C 257.082031 205.949219 257.363281 206.402344 257.585938 206.675781 C 258.308594 207.578125 258.4375 208.128906 257.886719 207.984375 C 256.960938 207.734375 256.921875 207.820312 257.511719 208.761719 C 257.699219 209.054688 257.78125 209.273438 257.71875 209.3125 C 257.589844 209.394531 257.632812 210.015625 257.777344 210.160156 C 257.992188 210.375 257.902344 210.628906 257.613281 210.632812 C 257.335938 210.636719 257.339844 210.636719 257.738281 210.949219 C 259.386719 212.242188 259.96875 213.398438 258.730469 212.929688 C 258.339844 212.78125 258.347656 212.820312 258.839844 213.558594 C 259.335938 214.296875 259.34375 214.316406 259.15625 214.574219 C 259.03125 214.742188 259.003906 214.734375 258.683594 214.441406 C 258.039062 213.855469 258.171875 214.132812 258.929688 214.957031 C 259.675781 215.765625 259.828125 216.035156 259.546875 216.035156 C 259.46875 216.035156 259.386719 216.089844 259.359375 216.160156 C 259.328125 216.246094 259.242188 216.214844 259.074219 216.0625 C 258.945312 215.941406 258.65625 215.773438 258.4375 215.683594 L 258.039062 215.527344 L 258.402344 215.832031 C 258.808594 216.171875 259.886719 217.535156 259.886719 217.707031 C 259.886719 217.867188 259.671875 217.917969 259.40625 217.820312 L 259.175781 217.734375 L 259.382812 218.027344 C 259.832031 218.660156 259.207031 218.425781 258.363281 217.648438 C 258.210938 217.511719 258.085938 217.433594 258.085938 217.476562 C 258.085938 217.589844 258.726562 218.449219 258.980469 218.675781 C 259.207031 218.882812 259.257812 219.136719 259.070312 219.136719 C 259.007812 219.136719 258.882812 219.070312 258.796875 218.992188 C 258.707031 218.914062 258.324219 218.707031 257.9375 218.535156 L 257.238281 218.222656 L 257.59375 218.601562 C 259.105469 220.21875 259.453125 221.152344 258.144531 220.085938 C 257.796875 219.804688 257.535156 219.660156 257.4375 219.699219 C 257.339844 219.738281 257.113281 219.628906 256.855469 219.425781 C 256.5 219.140625 256.460938 219.128906 256.609375 219.335938 C 258.097656 221.453125 257.667969 221.734375 255.972656 219.753906 L 255.515625 219.222656 L 255.453125 219.804688 C 255.386719 220.460938 254.875 222.496094 254.636719 223.066406 C 254.550781 223.269531 254.5 223.4375 254.523438 223.4375 C 254.546875 223.4375 255.570312 222.941406 256.800781 222.335938 C 264.679688 218.457031 272.128906 216.378906 277.828125 216.472656 L 278.808594 216.488281 L 279.964844 214.234375 C 280.601562 212.996094 281.167969 211.925781 281.226562 211.855469 C 281.390625 211.65625 281.71875 211.707031 281.777344 211.9375 C 281.8125 212.078125 282.160156 211.246094 282.804688 209.449219 C 283.34375 207.964844 284.007812 206.171875 284.285156 205.460938 C 285.308594 202.863281 286.136719 200.242188 286.070312 199.820312 C 286.015625 199.492188 286.039062 199.425781 286.207031 199.371094 C 286.359375 199.324219 286.394531 199.25 286.351562 199.074219 C 286.316406 198.945312 286.339844 198.8125 286.398438 198.777344 C 286.460938 198.738281 286.507812 198.542969 286.507812 198.339844 C 286.503906 198.019531 286.449219 198.109375 286.078125 199.019531 C 285.0625 201.503906 284.746094 201.757812 284.777344 200.070312 L 284.796875 198.96875 L 284.285156 200.046875 C 283.304688 202.105469 283.15625 200.933594 283.957031 197.480469 C 284.167969 196.570312 284.097656 196.558594 283.761719 197.445312 C 283.15625 199.03125 281.679688 201.921875 281.476562 201.921875 C 281.308594 201.921875 281.289062 201.875 281.351562 201.558594 C 281.492188 200.804688 282.414062 197.703125 283.011719 195.96875 C 283.964844 193.214844 284.9375 190.140625 285.808594 187.160156 C 286.242188 185.671875 286.699219 184.230469 286.824219 183.957031 C 287.003906 183.566406 287.050781 183.277344 287.054688 182.609375 C 287.058594 181.894531 287.085938 181.757812 287.226562 181.730469 C 287.453125 181.683594 287.589844 181.96875 288.6875 184.710938 C 289.886719 187.714844 290.582031 189.25 292.8125 193.816406 C 294.746094 197.777344 295.316406 198.984375 295.316406 199.132812 C 295.316406 199.324219 295.054688 199.203125 294.902344 198.945312 C 293.652344 196.808594 292.878906 195.445312 292.011719 193.847656 C 291.4375 192.789062 290.953125 191.9375 290.9375 191.957031 C 290.921875 191.972656 291.335938 193.085938 291.851562 194.429688 C 293.707031 199.246094 294.453125 201.597656 293.96875 201.113281 C 293.890625 201.03125 292.0625 197.300781 291.660156 196.394531 C 291.445312 195.917969 291.257812 195.539062 291.242188 195.554688 C 291.164062 195.632812 291.597656 196.628906 292.566406 198.574219 C 293.140625 199.730469 293.613281 200.753906 293.613281 200.847656 C 293.613281 201.175781 293.414062 201.019531 292.957031 200.332031 C 292.628906 199.84375 292.449219 199.65625 292.328125 199.6875 C 292.199219 199.722656 292.035156 199.476562 291.609375 198.605469 C 291.027344 197.410156 288.851562 193.628906 288.945312 193.96875 C 288.972656 194.078125 289.085938 194.480469 289.195312 194.867188 C 289.683594 196.597656 290.1875 198.90625 290.40625 200.390625 C 290.828125 203.269531 290.027344 201.714844 288.617188 196.917969 L 288.429688 196.269531 L 288.414062 197.570312 C 288.410156 198.285156 288.378906 199.191406 288.34375 199.582031 L 288.285156 200.296875 L 289.222656 201.394531 C 289.738281 201.996094 290.925781 203.386719 291.863281 204.484375 C 292.796875 205.578125 294.453125 207.5 295.539062 208.753906 C 299.597656 213.429688 300.710938 214.832031 300.378906 214.851562 C 300.332031 214.855469 298.488281 213.058594 296.28125 210.867188 C 293.816406 208.414062 292.441406 207.109375 292.710938 207.476562 C 292.953125 207.808594 293.605469 208.683594 294.15625 209.429688 C 296.285156 212.304688 297.367188 214.027344 297.128906 214.171875 C 296.910156 214.308594 293.335938 210.074219 289.914062 205.625 C 288.695312 204.039062 288.519531 203.835938 288.742188 204.277344 C 288.824219 204.445312 289.519531 205.417969 290.285156 206.441406 C 292.84375 209.859375 294.945312 212.894531 294.855469 213.042969 C 294.753906 213.207031 294.664062 213.128906 293.925781 212.230469 C 293.515625 211.734375 293.171875 211.328125 293.160156 211.328125 C 293.148438 211.328125 293.472656 211.894531 293.886719 212.582031 C 294.671875 213.894531 294.851562 214.601562 294.207031 213.832031 C 293.824219 213.378906 291.792969 210.679688 291.171875 209.804688 C 290.910156 209.433594 290.679688 209.128906 290.664062 209.128906 C 290.652344 209.128906 290.949219 209.949219 291.332031 210.953125 C 292.039062 212.820312 293.214844 216.179688 293.214844 216.34375 C 293.214844 217.117188 292.234375 215.085938 289.960938 209.601562 C 289.144531 207.632812 288.460938 206.042969 288.4375 206.066406 C 288.410156 206.089844 288.574219 207.09375 288.796875 208.292969 C 289.734375 213.347656 290.203125 216.578125 290.03125 216.753906 C 289.871094 216.914062 289.78125 216.640625 289.15625 214.082031 L 288.621094 211.878906 L 288.617188 213.007812 C 288.609375 213.890625 288.582031 214.132812 288.472656 214.132812 C 288.3125 214.132812 288.292969 214 288.007812 210.980469 C 287.894531 209.769531 287.769531 208.484375 287.726562 208.128906 L 287.65625 207.476562 L 287.472656 208.363281 C 287.375 208.851562 287.253906 209.820312 287.203125 210.515625 C 287.15625 211.210938 287.058594 212.292969 286.992188 212.917969 C 286.882812 213.953125 286.886719 214.0625 287.039062 214.148438 C 287.214844 214.246094 287.25 214.664062 287.117188 215.132812 C 287.066406 215.328125 287.09375 215.40625 287.253906 215.488281 C 287.664062 215.695312 287.457031 218.152344 286.761719 221.386719 C 286.632812 221.992188 286.496094 222.820312 286.464844 223.226562 C 286.277344 225.496094 282.761719 239.101562 281.515625 242.375 C 281.386719 242.714844 281.105469 242.746094 281.105469 242.417969 C 281.105469 241.859375 281.976562 237.386719 282.769531 233.894531 C 283.070312 232.574219 283.695312 229.761719 284.164062 227.640625 C 285.347656 222.277344 285.410156 222.03125 285.613281 221.636719 C 285.71875 221.429688 285.859375 220.746094 285.957031 219.972656 C 286.046875 219.25 286.140625 218.550781 286.167969 218.421875 C 286.195312 218.289062 286 218.773438 285.730469 219.492188 C 285.039062 221.332031 284.75 221.9375 284.554688 221.9375 C 284.285156 221.9375 284.71875 220.003906 285.710938 216.761719 C 286.109375 215.464844 286.207031 215.003906 286.199219 214.460938 L 286.195312 213.78125 L 285.863281 214.914062 C 285.5 216.144531 285.480469 216.183594 285.277344 216.105469 C 285.164062 216.058594 285.167969 215.808594 285.324219 214.515625 C 285.546875 212.628906 285.519531 212.507812 285.167969 213.785156 C 284.328125 216.800781 283.914062 216.757812 284.363281 213.707031 C 284.539062 212.515625 284.535156 212.34375 284.351562 212.929688 C 284.273438 213.179688 284.207031 213.585938 284.207031 213.832031 C 284.203125 214.773438 283.042969 219.410156 282.15625 222.03125 C 281.75 223.238281 281.765625 223.230469 282.554688 221.886719 C 283.402344 220.433594 283.992188 219.636719 284.210938 219.636719 C 284.589844 219.636719 284.609375 219.949219 284.300781 220.871094 C 283.949219 221.910156 283.960938 221.800781 284.203125 221.867188 C 285.195312 222.125 284.671875 224.804688 282.132812 232.496094 C 277.996094 245.035156 276.894531 245.585938 280.417969 233.34375 C 281.738281 228.765625 282.292969 226.792969 282.265625 226.769531 C 282.253906 226.753906 282.023438 227.273438 281.753906 227.917969 C 279.625 233.054688 275.628906 241.550781 275.347656 241.550781 C 275.269531 241.550781 275.1875 241.511719 275.15625 241.460938 C 275.03125 241.261719 276.90625 236.238281 278.890625 231.449219 C 279.332031 230.378906 279.679688 229.488281 279.664062 229.472656 C 279.648438 229.453125 278.761719 230.828125 277.695312 232.519531 C 273.617188 238.992188 271.59375 241.878906 271.320312 241.609375 C 271.167969 241.453125 273.121094 237.886719 276.273438 232.550781 C 281.117188 224.363281 281.003906 224.558594 281.003906 224.160156 C 281.007812 223.398438 281.742188 219.46875 282.566406 215.832031 C 282.65625 215.429688 282.574219 215.585938 281.703125 217.484375 C 279.691406 221.878906 278.414062 224.183594 278.140625 223.910156 C 278.007812 223.777344 279.027344 220.910156 280.191406 218.136719 C 280.425781 217.574219 280.554688 217.144531 280.503906 217.085938 C 280.453125 217.023438 280.601562 216.332031 280.855469 215.433594 C 281.363281 213.625 281.363281 213.542969 280.855469 214.65625 C 279.71875 217.152344 275.695312 224.339844 275.433594 224.339844 C 275.121094 224.339844 275.625 223.0625 277.332031 219.523438 L 278.277344 217.5625 L 277.5625 217.691406 C 277.171875 217.761719 276.109375 217.9375 275.199219 218.085938 C 266.304688 219.519531 261.066406 221.710938 249.230469 228.941406 C 247.632812 229.917969 245.203125 231.355469 243.828125 232.140625 C 240.8125 233.863281 240.230469 234.246094 238.421875 235.695312 C 233.660156 239.511719 228.492188 242.195312 216.105469 247.304688 C 214.675781 247.898438 211.636719 249.191406 209.351562 250.179688 C 199.058594 254.640625 196.667969 255.332031 188.824219 256.109375 C 186.3125 256.355469 186.03125 256.523438 184.386719 258.707031 C 183.515625 259.863281 182.65625 260.636719 182.371094 260.523438 C 182.175781 260.449219 182.210938 259.0625 182.414062 258.714844 C 182.480469 258.605469 182.710938 258.09375 182.929688 257.578125 C 184.40625 254.105469 185.316406 253.5 189.882812 252.957031 C 196.402344 252.179688 198.976562 251.410156 207.601562 247.65625 C 210.636719 246.335938 213.523438 245.121094 217.910156 243.324219 C 227.183594 239.515625 232.800781 236.617188 237.222656 233.355469 L 238.566406 232.367188 L 237.992188 232.136719 C 237.679688 232.011719 236.703125 231.542969 235.820312 231.097656 C 224.550781 225.371094 220.335938 224.167969 210.453125 223.839844 C 202.351562 223.570312 200.578125 223.253906 196.933594 221.441406 C 194.605469 220.28125 194.816406 220.273438 190.46875 221.773438 C 185.769531 223.398438 182.789062 223.0625 175.371094 220.078125 C 170.566406 218.144531 169.105469 217.902344 166.320312 218.570312 C 163.417969 219.269531 162.976562 219.34375 161.457031 219.402344 C 158.054688 219.539062 156.847656 219.171875 146.90625 214.984375 C 134.316406 209.675781 131.703125 208.714844 121.289062 205.570312 C 116.769531 204.207031 114.765625 203.46875 110.898438 201.761719 C 106.707031 199.90625 106.222656 199.828125 102.074219 200.34375 C 96.882812 200.992188 92.976562 200.261719 86.25 197.390625 C 83.359375 196.152344 81.359375 194.933594 81.359375 194.402344 C 81.359375 194.105469 83.570312 194.515625 85.046875 195.082031 C 85.597656 195.292969 89.460938 196.617188 89.527344 196.617188 C 89.539062 196.617188 89.417969 196.488281 89.257812 196.328125 C 89.074219 196.144531 88.988281 195.972656 89.027344 195.875 C 89.058594 195.789062 89.046875 195.71875 89 195.714844 C 88.488281 195.703125 88.035156 194.703125 88.382812 194.359375 C 88.609375 194.128906 88.414062 193.792969 87.828125 193.402344 C 87.128906 192.945312 87.28125 192.320312 88.054688 192.460938 C 88.253906 192.496094 88.753906 192.570312 89.164062 192.617188 C 89.578125 192.667969 90.09375 192.738281 90.308594 192.773438 L 90.699219 192.839844 L 90.308594 192.503906 C 90.09375 192.316406 89.890625 192.132812 89.859375 192.089844 C 89.824219 192.046875 89.746094 192.128906 89.679688 192.269531 C 89.617188 192.414062 89.507812 192.515625 89.4375 192.492188 C 89.140625 192.394531 89.320312 190.757812 89.765625 189.457031 C 89.929688 188.980469 89.945312 188.710938 89.894531 187.128906 C 89.84375 185.589844 89.859375 185.296875 90 185.011719 C 90.089844 184.828125 90.164062 184.558594 90.164062 184.40625 C 90.164062 183.703125 90.8125 183.8125 91.203125 184.582031 C 91.441406 185.058594 92.367188 187.742188 92.367188 187.96875 C 92.367188 188.03125 92.632812 188.691406 92.960938 189.4375 C 93.632812 190.976562 93.808594 191.515625 93.671875 191.652344 C 93.613281 191.710938 93.636719 191.859375 93.730469 192.042969 C 93.953125 192.46875 93.789062 192.59375 93.273438 192.390625 L 92.867188 192.230469 L 92.867188 193.203125 L 93.441406 193.363281 C 94.273438 193.597656 94.289062 193.605469 94.242188 193.742188 C 94.214844 193.828125 93.914062 193.875 93.3125 193.894531 L 92.425781 193.925781 L 92.953125 194.226562 C 93.265625 194.40625 93.464844 194.582031 93.4375 194.65625 C 93.40625 194.734375 93.628906 194.886719 94.03125 195.0625 C 94.871094 195.429688 94.816406 195.578125 93.859375 195.535156 L 93.117188 195.503906 L 93.46875 195.722656 C 94.414062 196.308594 94.328125 196.519531 93.144531 196.519531 C 92.503906 196.519531 92.363281 196.542969 92.449219 196.648438 C 92.628906 196.863281 92.433594 197.011719 91.863281 197.097656 L 91.316406 197.179688 L 92.816406 197.546875 C 94.726562 198.015625 95.902344 198.203125 97.472656 198.285156 L 98.722656 198.351562 L 98.441406 198.113281 C 98.285156 197.980469 98.148438 197.796875 98.136719 197.710938 C 98.125 197.625 97.945312 197.402344 97.742188 197.226562 C 97.234375 196.777344 97.480469 196.019531 98.136719 196.019531 C 98.265625 196.019531 98.265625 195.996094 98.128906 195.859375 C 97.949219 195.683594 97.925781 195.460938 98.070312 195.367188 C 98.253906 195.253906 98.171875 195.132812 97.863281 195.066406 C 97.566406 195 96.457031 194.054688 96.261719 193.695312 C 96.125 193.449219 96.480469 193.117188 96.878906 193.117188 C 98.085938 193.117188 102.597656 195.09375 102.097656 195.402344 C 102.039062 195.441406 102.257812 195.625 102.585938 195.816406 C 103.222656 196.183594 103.28125 196.335938 102.816406 196.421875 C 102.550781 196.472656 102.542969 196.484375 102.714844 196.582031 C 103.28125 196.910156 102.296875 197 100.722656 196.761719 C 100.382812 196.710938 100.4375 196.753906 101.101562 197.054688 C 101.53125 197.246094 102.03125 197.515625 102.214844 197.65625 C 102.523438 197.890625 102.605469 197.90625 103.261719 197.851562 L 103.976562 197.789062 L 103.574219 197.421875 C 103.355469 197.214844 103.175781 196.996094 103.175781 196.929688 C 103.175781 196.730469 103.488281 196.320312 103.640625 196.320312 C 103.75 196.320312 103.757812 196.273438 103.679688 196.125 C 103.328125 195.464844 104.128906 195.085938 104.96875 195.515625 C 105.714844 195.894531 105.828125 195.4375 105.101562 194.96875 C 104.425781 194.527344 104.203125 194.191406 104.375 193.867188 C 104.5 193.632812 104.488281 193.589844 104.195312 193.285156 C 103.605469 192.679688 104.0625 192.054688 104.859375 192.378906 L 105.195312 192.515625 L 104.894531 192.167969 C 104.609375 191.84375 104.558594 191.5 104.777344 191.363281 C 104.820312 191.335938 104.832031 191.226562 104.804688 191.113281 C 104.777344 191.003906 104.804688 190.851562 104.871094 190.769531 C 104.964844 190.65625 104.917969 190.566406 104.628906 190.296875 C 104.230469 189.929688 104.320312 189.515625 104.804688 189.515625 C 105 189.515625 104.992188 189.488281 104.695312 189.214844 C 104.347656 188.898438 104.363281 188.617188 104.734375 188.472656 C 105.253906 188.273438 109.980469 190.4375 109.980469 190.875 C 109.980469 191.125 109.371094 191.003906 107.285156 190.34375 C 107.199219 190.316406 107.40625 190.457031 107.746094 190.652344 C 109.230469 191.503906 109.703125 191.996094 108.96875 191.9375 L 108.628906 191.910156 L 108.878906 192.082031 C 110.355469 193.089844 110.691406 193.601562 109.789062 193.46875 L 109.328125 193.398438 L 109.605469 193.6875 C 109.921875 194.023438 109.957031 194.21875 109.695312 194.21875 C 109.324219 194.21875 107.910156 193.804688 107.292969 193.515625 C 106.367188 193.082031 106.40625 193.148438 107.4375 193.753906 C 109.441406 194.929688 110.359375 195.855469 109.179688 195.519531 C 109 195.464844 108.871094 195.441406 108.890625 195.460938 C 108.914062 195.480469 109.304688 195.773438 109.761719 196.113281 C 110.675781 196.789062 110.746094 196.980469 110.070312 196.949219 L 109.628906 196.925781 L 110.507812 197.792969 C 111.683594 198.945312 111.621094 199.101562 110.128906 198.71875 C 109.699219 198.609375 109.335938 198.53125 109.320312 198.546875 C 109.253906 198.609375 114.421875 200.839844 116.125 201.476562 L 118.011719 202.191406 L 119.074219 201.664062 C 119.660156 201.375 120.65625 200.960938 121.289062 200.742188 C 128.257812 198.320312 131.082031 197.210938 136.398438 194.816406 C 144.582031 191.125 145.105469 191.066406 154.210938 192.675781 C 158.875 193.503906 165.089844 194.546875 172.625 195.769531 C 175.898438 196.300781 179.234375 196.863281 180.03125 197.019531 L 181.480469 197.300781 L 181.78125 197.066406 C 183.074219 196.0625 185.757812 193.203125 186.523438 192.015625 C 186.964844 191.328125 187.574219 190.378906 187.882812 189.902344 C 188.597656 188.792969 189.605469 187.804688 190.710938 187.117188 C 192.441406 186.042969 192.640625 185.890625 193.125 185.242188 C 193.777344 184.371094 194.339844 183.203125 195.378906 180.585938 C 197.222656 175.917969 197.859375 175.195312 200.546875 174.664062 C 201.585938 174.460938 201.628906 174.441406 201.898438 174.066406 L 202.175781 173.679688 L 200.984375 172.515625 C 200.324219 171.875 199.253906 170.765625 198.601562 170.050781 C 197.949219 169.332031 196.5 167.84375 195.378906 166.738281 C 193.320312 164.703125 193.089844 164.394531 193.628906 164.394531 C 194.890625 164.394531 198.28125 167.695312 201.5625 172.113281 C 202.007812 172.710938 202.40625 173.203125 202.445312 173.203125 C 202.664062 173.203125 204.308594 170.824219 204.15625 170.726562 C 203.964844 170.601562 202.300781 169.144531 201.171875 168.109375 C 200.398438 167.402344 200.207031 167.09375 200.441406 166.949219 C 200.65625 166.816406 201.609375 167.585938 203.5 169.417969 L 204.605469 170.484375 L 205.328125 169.648438 L 206.050781 168.808594 L 205.574219 168.535156 C 203.78125 167.503906 199.78125 164.484375 196.792969 161.910156 C 193.347656 158.9375 190.152344 155.710938 186.929688 151.9375 C 183.429688 147.835938 183.339844 147.796875 180.800781 149.257812 C 179.957031 149.742188 176.609375 152.21875 175.394531 153.253906 C 173.125 155.191406 170.824219 156.589844 170.824219 156.03125 C 170.824219 155.835938 172.054688 154.183594 172.804688 153.371094 L 173.355469 152.777344 L 172.449219 151.929688 C 168.425781 148.179688 162.277344 139.253906 153.589844 124.566406 C 151.582031 121.167969 149.449219 117.320312 147.398438 113.382812 C 146.992188 112.601562 146.632812 111.957031 146.605469 111.957031 C 146.578125 111.957031 146.246094 112.507812 145.867188 113.183594 C 141.84375 120.328125 140.410156 122.300781 135.847656 126.96875 C 133.140625 129.734375 132.886719 130.097656 131.101562 133.664062 C 126.964844 141.925781 122.742188 146.597656 116.632812 149.652344 C 113.25 151.347656 113.53125 150.847656 113.53125 155.140625 C 113.527344 161.960938 111.570312 164.851562 103.976562 169.25 C 101.601562 170.625 100.472656 171.308594 98.222656 172.738281 C 92.835938 176.152344 85.253906 180.03125 82.125 180.96875 C 78.648438 182.011719 71.566406 181.957031 71.371094 180.886719 C 71.296875 180.5 73.050781 179.90625 75.605469 179.453125 C 79.496094 178.761719 80.824219 178.3125 85.113281 176.230469 C 90.582031 173.570312 92.457031 172.566406 96.519531 170.121094 C 98.117188 169.160156 100.507812 167.753906 101.835938 166.996094 C 108.109375 163.414062 110.144531 161.324219 111.085938 157.492188 C 111.144531 157.242188 111.230469 155.824219 111.273438 154.339844 C 111.402344 149.90625 111.570312 149.644531 115.539062 147.652344 C 118.949219 145.9375 120.664062 144.617188 122.980469 141.929688 C 125.425781 139.089844 127.238281 136.316406 129.152344 132.472656 C 130.980469 128.800781 131.441406 128.15625 134.472656 125.035156 C 138.417969 120.964844 140.332031 118.246094 143.304688 112.484375 C 145.226562 108.753906 145.855469 108.117188 147.257812 108.449219 M 150.460938 122.019531 C 151.75 122.238281 152.054688 122.363281 152.09375 122.703125 L 152.125 122.996094 L 151.542969 122.941406 C 150.714844 122.867188 148.96875 122.265625 148.925781 122.039062 C 148.886719 121.824219 149.269531 121.820312 150.460938 122.019531 M 144.730469 123.390625 C 145.15625 127.386719 142.617188 138.488281 139.695312 145.40625 L 139.101562 146.8125 L 139.730469 147.421875 C 140.550781 148.21875 141.355469 149.273438 143.050781 151.785156 C 145.464844 155.363281 147.226562 157.492188 147.769531 157.492188 C 147.921875 157.492188 148.050781 157.585938 148.144531 157.765625 C 148.371094 158.199219 149.382812 158.863281 152.75 160.789062 C 160.707031 165.332031 165.167969 169.105469 169.734375 175.152344 C 171.804688 177.894531 175.152344 182.796875 175.550781 183.671875 C 175.769531 184.152344 175.46875 184.203125 175.070312 183.757812 C 173.710938 182.222656 172.210938 180.445312 170.65625 178.507812 C 164.664062 171.046875 161.058594 167.847656 153.75 163.503906 C 152.542969 162.789062 150.90625 161.804688 150.105469 161.320312 L 148.648438 160.4375 L 148.828125 161.539062 C 148.929688 162.148438 149.34375 164.964844 149.757812 167.796875 C 150.785156 174.894531 150.957031 175.652344 152.625 180.40625 C 154.046875 184.457031 154.671875 186.613281 154.425781 186.613281 C 154.003906 186.613281 151.203125 180.507812 150.171875 177.355469 C 149.105469 174.082031 148.703125 171.46875 147.902344 162.59375 C 147.621094 159.449219 147.679688 159.699219 147.132812 159.292969 C 145.382812 157.984375 143.613281 155.75 141.152344 151.734375 C 140.148438 150.09375 138.703125 147.882812 138.640625 147.882812 C 138.617188 147.882812 138.3125 148.457031 137.960938 149.160156 C 134.28125 156.5 130.496094 162.632812 130.496094 161.242188 C 130.496094 160.972656 131.390625 158.734375 132.324219 156.691406 C 132.460938 156.386719 133.3125 154.652344 134.21875 152.835938 C 139.328125 142.578125 141.429688 136.621094 143.398438 126.820312 C 144.0625 123.527344 144.222656 122.964844 144.503906 122.964844 C 144.640625 122.964844 144.695312 123.0625 144.730469 123.390625 M 149.609375 127.136719 C 149.84375 127.175781 151.011719 127.460938 151.835938 127.679688 C 152.324219 127.804688 152.402344 128.269531 151.9375 128.269531 C 151.203125 128.265625 148.65625 127.453125 148.65625 127.21875 C 148.65625 127.109375 149.199219 127.0625 149.609375 127.136719 M 151.808594 132.332031 C 154.402344 132.671875 155.367188 133.070312 154.777344 133.5625 C 154.605469 133.703125 152.84375 133.484375 151.308594 133.128906 C 148.171875 132.402344 148.488281 131.894531 151.808594 132.332031 M 153.886719 137.082031 C 154.796875 137.242188 155.113281 137.417969 155.113281 137.769531 C 155.113281 138.253906 154.222656 138.273438 152.761719 137.828125 C 151.136719 137.332031 152.011719 136.75 153.886719 137.082031 M 255.394531 139.554688 C 255.644531 140.199219 255.78125 141.789062 256.035156 147.035156 C 256.476562 156.066406 256.679688 156.542969 262.246094 161.5 C 266.125 164.953125 267.308594 166.035156 267.398438 166.203125 C 267.753906 166.871094 266.5 166.058594 263.191406 163.484375 C 259.648438 160.726562 258.21875 159.472656 257.316406 158.324219 L 256.910156 157.804688 L 256.722656 158.21875 C 256.390625 158.960938 255.078125 160.839844 253.015625 163.53125 L 252.699219 163.945312 L 253.054688 164.546875 C 253.25 164.875 253.894531 166.070312 254.484375 167.199219 C 256.660156 171.355469 261.285156 180.285156 261.707031 181.140625 L 262.140625 182.023438 L 262.539062 181.964844 C 263.460938 181.835938 268.308594 181.78125 268.425781 181.898438 C 268.738281 182.210938 267.746094 182.328125 264.554688 182.34375 L 262.3125 182.359375 L 262.664062 183.058594 C 262.972656 183.671875 263.492188 184.925781 263.492188 185.0625 C 263.492188 185.566406 262.519531 184.414062 261.375 182.546875 L 260.867188 181.714844 L 260.375 182.519531 C 259.773438 183.511719 259.625 183.71875 256.140625 188.511719 C 251.445312 194.976562 249.679688 197.132812 249.679688 196.414062 C 249.679688 195.484375 256.921875 184.917969 259.910156 181.484375 L 260.386719 180.941406 L 259.234375 178.898438 C 258.011719 176.730469 254.886719 170.519531 253.160156 166.839844 L 252.121094 164.628906 L 251.078125 165.882812 C 247.859375 169.742188 245.640625 172.191406 245.488281 172.046875 C 245.335938 171.902344 246.390625 170.394531 248.570312 167.648438 C 250.582031 165.113281 251.582031 163.769531 251.582031 163.597656 C 251.582031 163.5 251.667969 163.394531 251.769531 163.367188 C 251.933594 163.328125 253.199219 161.683594 255.886719 158.027344 L 256.535156 157.140625 L 256.300781 156.648438 C 255.742188 155.476562 255.402344 153.285156 255.1875 149.484375 C 254.757812 141.859375 254.835938 138.101562 255.394531 139.554688 M 151.558594 140.320312 C 153.464844 140.71875 157.941406 141.929688 159.066406 142.347656 C 159.71875 142.59375 159.804688 143.011719 159.210938 143.058594 C 158.078125 143.15625 149.921875 140.566406 150.15625 140.183594 C 150.238281 140.046875 150.257812 140.050781 151.558594 140.320312 M 261.867188 150.414062 C 263.980469 152.125 264.152344 152.289062 263.816406 152.285156 C 263.730469 152.285156 260.78125 149.90625 260.390625 149.527344 C 259.703125 148.851562 260.605469 149.398438 261.867188 150.414062 M 264.949219 154.472656 C 269.199219 156.914062 272.339844 159.289062 271.65625 159.550781 C 271.179688 159.734375 263.324219 154.242188 263.546875 153.878906 C 263.636719 153.730469 263.699219 153.757812 264.949219 154.472656 M 182.960938 156.863281 C 184.609375 160.582031 184.476562 164.410156 182.5 170.101562 C 179.589844 178.472656 178.796875 178.746094 181.347656 170.5 C 183.15625 164.648438 183.351562 162.839844 182.632812 158.542969 C 182.292969 156.503906 182.28125 156.289062 182.507812 156.289062 C 182.652344 156.289062 182.773438 156.445312 182.960938 156.863281 M 192.09375 158.902344 C 194.378906 161.007812 198.667969 165.410156 198.550781 165.527344 C 198.421875 165.65625 198.394531 165.632812 193.96875 161.246094 C 191.171875 158.476562 190.640625 157.890625 190.917969 157.890625 C 190.964844 157.890625 191.492188 158.34375 192.09375 158.902344 M 266.105469 160.074219 C 272.585938 164.363281 276.574219 167.496094 276.003906 167.847656 C 275.652344 168.0625 264.109375 159.539062 263.914062 158.917969 C 263.820312 158.625 264.277344 158.863281 266.105469 160.074219 M 224.210938 164.421875 C 225.722656 168.246094 227.121094 170.945312 230.570312 176.703125 C 233.429688 181.476562 234.246094 182.972656 234.082031 183.136719 C 234.011719 183.207031 233.9375 183.214844 233.882812 183.152344 C 233.230469 182.441406 228.660156 175.695312 227.65625 173.96875 C 227.113281 173.027344 227.328125 172.949219 225.773438 174.628906 C 223.449219 177.132812 223.203125 178.015625 224.046875 180.855469 C 224.882812 183.671875 224.683594 184.40625 222.46875 186.621094 C 219.644531 189.441406 213.855469 193.449219 213.855469 192.578125 C 213.855469 192.382812 215.402344 190.9375 217.554688 189.113281 C 219.734375 187.269531 222.257812 184.816406 222.742188 184.070312 C 223.230469 183.316406 223.238281 183.078125 222.832031 181.472656 C 221.878906 177.703125 222.382812 176.171875 225.546875 173.226562 L 226.652344 172.199219 L 225.863281 170.574219 C 224.660156 168.085938 223.785156 165.464844 223.605469 163.820312 C 223.503906 162.882812 223.667969 163.046875 224.210938 164.421875 M 126.367188 163.960938 C 126.9375 164.191406 125.949219 165.347656 122.460938 168.53125 C 116.753906 173.742188 116.773438 172.691406 122.488281 166.988281 C 125.214844 164.265625 125.863281 163.757812 126.367188 163.960938 M 113.582031 166.410156 C 113.582031 167.039062 112.0625 170.527344 111.492188 171.199219 C 110.660156 172.1875 111.28125 169.878906 112.65625 166.871094 C 113.066406 165.976562 113.582031 165.71875 113.582031 166.410156 M 118.320312 167.0625 C 118.800781 167.546875 117.417969 169.542969 115.296875 171.425781 C 113.933594 172.636719 114.34375 171.382812 116.117188 168.914062 C 117.363281 167.175781 117.945312 166.691406 118.320312 167.0625 M 288.507812 167.867188 C 289.53125 167.925781 289.726562 167.984375 289.691406 168.230469 C 289.628906 168.671875 283.304688 168.382812 283.304688 167.9375 C 283.304688 167.804688 286.632812 167.757812 288.507812 167.867188 M 291.011719 170.898438 C 293.003906 171.269531 296.226562 172.214844 296.527344 172.515625 C 297.027344 173.015625 296.390625 173.25 295.335938 172.953125 C 292.707031 172.207031 289.761719 171.097656 289.835938 170.878906 C 289.894531 170.703125 289.984375 170.707031 291.011719 170.898438 M 292.410156 174.574219 C 295.714844 175.703125 301.265625 178.050781 301.386719 178.367188 C 301.714844 179.222656 298.03125 177.890625 292.988281 175.335938 C 291.511719 174.585938 291.183594 174.152344 292.410156 174.574219 M 208.457031 176.765625 C 208.675781 177.027344 208.222656 177.722656 207.046875 178.925781 C 205.542969 180.46875 205.152344 180.363281 206.253906 178.714844 C 207.34375 177.089844 208.140625 176.382812 208.457031 176.765625 M 213.054688 177.007812 C 213.054688 177.515625 212.3125 178.09375 209.503906 179.78125 C 204.484375 182.792969 204.75 181.925781 209.902344 178.460938 C 212.460938 176.742188 213.054688 176.46875 213.054688 177.007812 M 148.324219 178.128906 C 148.785156 178.980469 147.867188 186.8125 147.304688 186.8125 C 147.0625 186.8125 147.167969 185.574219 147.714844 182.007812 C 147.894531 180.847656 148.035156 179.511719 148.042969 178.929688 C 148.058594 177.882812 148.109375 177.734375 148.324219 178.128906 M 205.082031 178.070312 C 205.359375 178.347656 204.09375 180.152344 203.035156 181 C 202.476562 181.441406 202.347656 181.492188 202.347656 181.253906 C 202.347656 180.449219 204.710938 177.699219 205.082031 178.070312 M 145.875 179.523438 C 145.71875 180.851562 141.601562 187.367188 141.601562 186.285156 C 141.601562 186.058594 142.289062 184.710938 143.402344 182.757812 C 143.996094 181.710938 144.703125 180.453125 144.972656 179.957031 C 145.59375 178.808594 145.980469 178.625 145.875 179.523438 M 142.902344 180.460938 C 142.902344 181.050781 142.488281 181.773438 140.824219 184.09375 C 139.644531 185.746094 138.507812 187.113281 138.328125 187.113281 C 137.890625 187.113281 138.53125 186.007812 142.074219 180.632812 C 142.515625 179.964844 142.902344 179.886719 142.902344 180.460938 M 230.09375 181.320312 C 231.164062 182.121094 237.429688 190.714844 236.941406 190.714844 C 236.628906 190.714844 229.5 181.558594 229.59375 181.277344 C 229.65625 181.09375 229.808594 181.109375 230.09375 181.320312 M 98.019531 182.40625 C 98.121094 182.515625 98.160156 182.609375 98.113281 182.609375 C 98.0625 182.609375 98.257812 182.722656 98.546875 182.855469 C 99.78125 183.429688 100.804688 184.21875 100.589844 184.433594 C 100.503906 184.519531 100.515625 184.589844 100.632812 184.722656 C 100.808594 184.917969 100.746094 185.109375 100.503906 185.109375 C 100.375 185.109375 100.371094 185.136719 100.476562 185.265625 C 100.710938 185.546875 100.433594 185.675781 100.019531 185.480469 C 99.601562 185.28125 99.488281 185.265625 99.652344 185.429688 C 99.71875 185.496094 99.773438 185.617188 99.773438 185.699219 C 99.773438 185.78125 99.867188 185.949219 99.984375 186.074219 C 100.296875 186.40625 100.175781 186.625 99.753906 186.507812 C 99.570312 186.453125 99.40625 186.410156 99.386719 186.410156 C 99.367188 186.410156 99.613281 186.609375 99.9375 186.847656 C 101.148438 187.75 101.464844 188.304688 100.703125 188.179688 L 100.355469 188.121094 L 100.992188 188.710938 C 102.171875 189.800781 101.464844 189.777344 99.273438 188.652344 C 97.609375 187.800781 97.003906 187.21875 97.382812 186.839844 C 97.46875 186.753906 97.441406 186.65625 97.285156 186.457031 C 96.90625 185.976562 97.1875 185.527344 97.789062 185.648438 L 98.109375 185.714844 L 97.691406 185.355469 C 97.289062 185.007812 97.160156 184.691406 97.371094 184.558594 C 97.425781 184.527344 97.472656 184.390625 97.472656 184.261719 C 97.472656 184 97.734375 183.675781 97.878906 183.765625 C 98.246094 183.992188 97.863281 183.546875 97.472656 183.289062 C 97.195312 183.109375 96.96875 182.910156 96.96875 182.84375 C 96.96875 182.667969 97.257812 182.410156 97.457031 182.410156 C 97.554688 182.410156 97.675781 182.363281 97.734375 182.304688 C 97.804688 182.238281 97.894531 182.269531 98.019531 182.40625 M 104.847656 182.972656 C 105.292969 183.15625 106.742188 185.710938 106.398438 185.710938 C 106.058594 185.710938 104.4375 183.371094 104.582031 183.09375 C 104.636719 182.992188 104.691406 182.914062 104.703125 182.917969 C 104.714844 182.921875 104.78125 182.949219 104.847656 182.972656 M 105.820312 185.664062 C 106.957031 186.351562 107.125 186.46875 107.746094 187.015625 C 108.078125 187.304688 108.101562 187.355469 107.953125 187.449219 C 107.800781 187.546875 107.808594 187.582031 108.050781 187.835938 C 108.582031 188.390625 107.734375 188.398438 106.492188 187.847656 C 105.570312 187.445312 105.777344 187.589844 107.066406 188.261719 C 108.296875 188.902344 108.679688 189.15625 108.679688 189.34375 C 108.679688 189.722656 104.636719 188.226562 104.1875 187.675781 C 103.882812 187.308594 104.296875 187.09375 104.910156 187.308594 C 105.824219 187.632812 105.835938 187.628906 105.175781 187.273438 C 104.03125 186.664062 103.738281 186.300781 104.0625 185.902344 C 104.226562 185.703125 104.230469 185.652344 104.109375 185.527344 C 103.867188 185.289062 103.992188 185.0625 104.375 185.035156 C 104.65625 185.011719 104.941406 185.136719 105.820312 185.664062 M 129.855469 186.066406 C 129.890625 186.207031 129.890625 186.503906 129.855469 186.722656 C 129.605469 188.277344 124.589844 195.703125 124.589844 194.515625 C 124.589844 193.878906 128.117188 187.0625 128.917969 186.148438 C 129.296875 185.71875 129.757812 185.675781 129.855469 186.066406 M 267.34375 186.464844 C 270.980469 186.863281 274.25 187.5 274.25 187.8125 C 274.25 188.191406 268.871094 187.445312 266.269531 186.710938 C 265.925781 186.609375 265.71875 186.296875 266.019531 186.324219 C 266.085938 186.328125 266.683594 186.394531 267.34375 186.464844 M 262.589844 187.09375 C 263.3125 187.628906 264.757812 188.914062 267.09375 191.109375 C 272.933594 196.585938 275.429688 199.121094 274.972656 199.121094 C 274.535156 199.121094 263.367188 189.125 262.136719 187.632812 C 261.238281 186.546875 261.472656 186.269531 262.589844 187.09375 M 230.816406 187.027344 C 231.804688 187.847656 235.871094 192.179688 235.871094 192.414062 C 235.871094 192.472656 235.804688 192.515625 235.722656 192.515625 C 235.5 192.515625 229.96875 187.019531 229.96875 186.796875 C 229.96875 186.496094 230.277344 186.578125 230.816406 187.027344 M 212.3125 187.152344 C 212.566406 187.808594 207.585938 196.714844 206.964844 196.71875 C 206.667969 196.71875 207.792969 194.1875 209.144531 191.816406 C 209.347656 191.457031 210.03125 190.230469 210.660156 189.089844 C 211.8125 186.996094 212.117188 186.640625 212.3125 187.152344 M 98.375 188.296875 C 99.726562 189.09375 101.171875 190.152344 101.171875 190.34375 C 101.175781 190.503906 100.898438 190.515625 100.480469 190.367188 C 99.867188 190.152344 99.871094 190.167969 100.53125 190.628906 C 101.589844 191.367188 101.894531 191.636719 101.789062 191.742188 C 101.507812 192.023438 96.671875 189.152344 96.671875 188.703125 C 96.671875 188.601562 96.703125 188.511719 96.746094 188.511719 C 96.785156 188.511719 96.898438 188.378906 96.992188 188.210938 C 97.226562 187.800781 97.570312 187.820312 98.375 188.296875 M 123.824219 188.179688 C 124.214844 188.570312 123.730469 189.648438 122.308594 191.550781 C 120.34375 194.179688 119.589844 194.488281 120.644531 192.234375 C 121.953125 189.4375 123.328125 187.683594 123.824219 188.179688 M 98.921875 190.464844 C 100.671875 191.527344 101.972656 192.480469 101.972656 192.695312 C 101.972656 192.882812 101.703125 192.8125 100.542969 192.320312 C 100.035156 192.101562 99.734375 192.003906 99.871094 192.097656 C 100.695312 192.660156 101.675781 193.429688 101.675781 193.515625 C 101.675781 193.929688 98.097656 192.261719 97.191406 191.425781 C 96.773438 191.039062 96.902344 190.660156 97.421875 190.761719 L 97.722656 190.820312 L 97.445312 190.5625 C 97.132812 190.273438 97.125 190.234375 97.308594 189.988281 C 97.527344 189.703125 97.789062 189.78125 98.921875 190.464844 M 120.066406 190.433594 C 120.601562 190.96875 118.019531 194.117188 117.042969 194.117188 C 116.339844 194.117188 118.335938 190.976562 119.402344 190.40625 C 119.640625 190.277344 119.925781 190.292969 120.066406 190.433594 M 90.566406 191.984375 C 90.566406 192.046875 90.707031 192.203125 90.878906 192.324219 C 91.183594 192.542969 91.1875 192.542969 91.078125 192.335938 C 91.015625 192.222656 90.917969 192.003906 90.859375 191.851562 C 90.757812 191.574219 90.570312 191.660156 90.566406 191.984375 M 231.667969 191.882812 C 232.664062 192.574219 234.882812 198.214844 234.03125 197.886719 C 233.953125 197.859375 233.367188 196.78125 232.734375 195.5 C 232.097656 194.214844 231.394531 192.921875 231.171875 192.617188 C 230.597656 191.855469 230.925781 191.367188 231.667969 191.882812 M 97.320312 191.9375 C 98.671875 192.40625 102.273438 194.359375 102.101562 194.53125 C 101.925781 194.703125 98.160156 193.117188 97 192.382812 C 96.351562 191.972656 96.566406 191.675781 97.320312 191.9375 M 230.042969 193.339844 C 230.664062 194.113281 232.867188 199.824219 232.542969 199.820312 C 232.265625 199.816406 229.566406 193.996094 229.566406 193.40625 C 229.566406 193.1875 229.886719 193.144531 230.042969 193.339844 M 144.695312 193.519531 C 143.46875 193.832031 142.621094 194.210938 138.53125 196.253906 C 133.453125 198.796875 131.761719 199.5 128.035156 200.625 C 125.917969 201.261719 121.019531 202.5 120.257812 202.585938 C 119.601562 202.660156 119.617188 202.742188 120.335938 202.953125 C 127.332031 205.027344 133.425781 207.148438 140.601562 210.003906 C 141.839844 210.5 142.988281 210.898438 143.152344 210.898438 C 143.320312 210.898438 143.632812 210.929688 143.851562 210.972656 L 144.25 211.046875 L 144 210.84375 C 143.503906 210.441406 143.863281 210.378906 145.199219 210.644531 C 145.863281 210.777344 146.40625 210.875 146.40625 210.863281 C 146.40625 210.851562 146.179688 210.714844 145.90625 210.558594 C 145.21875 210.175781 145.234375 209.980469 145.945312 210.066406 C 146.246094 210.101562 146.554688 210.152344 146.632812 210.183594 C 146.722656 210.21875 146.800781 210.164062 146.832031 210.046875 C 146.886719 209.832031 147.761719 209.566406 148.109375 209.660156 C 148.25 209.695312 148.308594 209.660156 148.308594 209.53125 C 148.308594 209.398438 148.199219 209.335938 147.882812 209.289062 C 146.648438 209.101562 145.75 208.535156 146.546875 208.445312 C 146.808594 208.414062 146.761719 208.375 146.097656 208.042969 C 144.890625 207.445312 145.214844 207.121094 146.882812 207.253906 L 147.539062 207.304688 L 146.945312 206.988281 C 145.257812 206.085938 145.28125 205.796875 147.03125 206.015625 L 147.605469 206.085938 L 147.148438 205.632812 C 146.867188 205.347656 146.710938 205.113281 146.742188 205.007812 C 146.765625 204.914062 146.722656 204.8125 146.644531 204.785156 C 146.394531 204.6875 146.488281 204.425781 146.769531 204.425781 C 146.988281 204.425781 147.011719 204.402344 146.90625 204.273438 C 146.753906 204.089844 146.980469 203.976562 147.367188 204.050781 C 147.546875 204.085938 147.589844 204.070312 147.515625 203.992188 C 147.128906 203.605469 147.78125 203.640625 149.101562 204.082031 C 150.78125 204.640625 151.46875 205.234375 151.0625 205.789062 C 150.996094 205.878906 150.964844 206.0625 150.988281 206.195312 C 151.023438 206.375 150.984375 206.453125 150.835938 206.492188 C 150.636719 206.542969 150.621094 206.925781 150.8125 206.925781 C 151.035156 206.925781 151.609375 207.617188 151.609375 207.882812 C 151.609375 208.039062 151.703125 208.265625 151.820312 208.386719 C 152.5625 209.179688 152.03125 209.535156 150.148438 209.5 L 148.734375 209.476562 L 149.296875 209.683594 C 150.503906 210.125 151.492188 211.023438 151.386719 211.582031 C 151.351562 211.753906 151.40625 211.839844 151.59375 211.925781 C 152.421875 212.304688 153.355469 213.066406 153.09375 213.152344 C 153.027344 213.175781 153.140625 213.296875 153.34375 213.421875 C 154.007812 213.832031 153.746094 214.203125 152.917969 214.023438 C 152.324219 213.898438 152.25 213.925781 152.410156 214.226562 C 152.46875 214.34375 152.496094 214.523438 152.460938 214.628906 C 152.410156 214.785156 152.554688 214.875 153.433594 215.214844 C 155.4375 215.996094 156.511719 216.335938 156.511719 216.191406 C 156.511719 216.015625 156.734375 215.933594 157.222656 215.933594 C 157.882812 215.933594 157.757812 215.609375 156.988281 215.332031 C 156.1875 215.042969 155.414062 214.652344 155.414062 214.542969 C 155.414062 214.414062 155.664062 214.335938 155.933594 214.378906 C 156.058594 214.398438 156.449219 214.441406 156.792969 214.476562 L 157.425781 214.542969 L 157.359375 214.160156 C 157.273438 213.683594 157.3125 213.714844 156.386719 213.386719 C 154.714844 212.789062 154.609375 212.472656 156.089844 212.496094 C 157.144531 212.511719 157.535156 212.335938 156.789062 212.179688 C 154.804688 211.761719 154.375 211.28125 155.992188 211.28125 C 157.082031 211.28125 157.089844 211.273438 156.953125 210.761719 C 156.917969 210.636719 156.785156 210.519531 156.628906 210.480469 C 154.992188 210.082031 154.835938 209.734375 156.289062 209.730469 C 157.003906 209.726562 157.070312 209.390625 156.375 209.296875 C 154.832031 209.082031 154.734375 208.617188 156.199219 208.464844 L 156.789062 208.402344 L 156.835938 207.648438 C 156.9375 206.101562 157.582031 206.410156 157.859375 208.136719 L 157.917969 208.5 L 158.691406 208.558594 C 160.222656 208.671875 160.179688 209.523438 158.640625 209.527344 C 157.792969 209.527344 157.757812 209.777344 158.589844 209.871094 C 159.914062 210.019531 160.417969 210.203125 160.417969 210.535156 C 160.417969 210.703125 160.445312 210.710938 160.792969 210.589844 C 161 210.515625 161.484375 210.402344 161.867188 210.332031 C 162.9375 210.136719 162.941406 210.105469 161.917969 209.976562 C 159.871094 209.71875 159.734375 209.445312 161.515625 209.164062 L 161.96875 209.09375 L 161.367188 208.9375 C 160.367188 208.671875 160.570312 208.332031 161.828125 208.167969 C 162.21875 208.113281 162.3125 208.066406 162.277344 207.9375 C 161.882812 206.546875 161.839844 205.292969 162.183594 205.246094 C 162.4375 205.207031 162.691406 205.792969 163.042969 207.246094 L 163.257812 208.128906 L 163.722656 208.128906 C 164.433594 208.128906 164.941406 208.804688 164.34375 208.960938 C 164.234375 208.988281 164.269531 209.007812 164.4375 209.015625 C 165.101562 209.042969 165.109375 209.730469 164.445312 209.910156 C 164.089844 210 164.113281 210.007812 164.777344 210.019531 C 165.824219 210.035156 166.351562 210.691406 165.539062 210.96875 C 165.183594 211.09375 165.207031 211.230469 165.582031 211.230469 C 166.179688 211.230469 166.617188 211.777344 166.285156 212.109375 C 166.105469 212.289062 165.449219 212.421875 164.707031 212.425781 C 164.171875 212.429688 164.148438 212.441406 164.191406 212.667969 C 164.234375 212.886719 164.296875 212.90625 165.054688 212.960938 C 166.03125 213.03125 166.464844 213.167969 166.589844 213.449219 C 166.671875 213.636719 166.792969 213.515625 167.695312 212.320312 C 168.476562 211.28125 171.507812 207.777344 173.441406 205.664062 L 173.636719 205.453125 L 172.253906 205.496094 C 170.660156 205.542969 169.273438 205.371094 169.273438 205.125 C 169.273438 204.789062 172.765625 204.726562 173.53125 205.050781 L 173.890625 205.199219 L 174.785156 204.191406 C 175.273438 203.640625 176.746094 202.097656 178.054688 200.765625 L 180.429688 198.347656 L 179.304688 198.226562 C 175.925781 197.859375 169.976562 196.902344 156.011719 194.480469 C 148.199219 193.125 146.734375 193 144.695312 193.519531 M 247.8125 195.085938 C 248.316406 195.585938 246.066406 199.160156 242.136719 204.097656 C 241.027344 205.492188 240.675781 205.832031 240.675781 205.503906 C 240.675781 205.296875 241.949219 203.265625 243.863281 200.421875 C 244.882812 198.910156 246.117188 197.074219 246.597656 196.34375 C 247.40625 195.128906 247.625 194.898438 247.8125 195.085938 M 206.453125 195.671875 C 206.9375 196.253906 206.003906 197.191406 202.84375 199.296875 C 198.371094 202.273438 197.207031 202.375 200.894531 199.464844 C 203.515625 197.402344 204.882812 196.320312 205.34375 195.945312 C 205.890625 195.5 206.238281 195.414062 206.453125 195.671875 M 168.957031 197.03125 C 169.96875 197.164062 171.109375 197.472656 172.574219 198.019531 C 174.550781 198.753906 174.839844 198.816406 176.613281 198.917969 C 178.835938 199.046875 179.546875 199.390625 178.578125 199.867188 C 177.535156 200.386719 174.425781 200.167969 172.734375 199.457031 C 172.261719 199.257812 171.222656 198.828125 170.421875 198.5 C 168.980469 197.910156 167.984375 197.402344 167.859375 197.203125 C 167.792969 197.09375 168 196.914062 168.171875 196.933594 C 168.226562 196.9375 168.582031 196.984375 168.957031 197.03125 M 269.460938 198.046875 C 271.339844 200 277.128906 208.328125 276.605469 208.328125 C 276.460938 208.328125 274.417969 205.660156 272.585938 203.074219 C 272.113281 202.414062 271.027344 200.890625 270.164062 199.691406 C 269.300781 198.492188 268.59375 197.46875 268.59375 197.414062 C 268.59375 197.207031 268.789062 197.347656 269.460938 198.046875 M 169.273438 199.519531 C 171.871094 200.070312 172.535156 200.28125 172.230469 200.46875 C 171.980469 200.625 166.820312 199.425781 166.820312 199.214844 C 166.820312 199.050781 167.421875 199.125 169.273438 199.519531 M 240.550781 200.289062 C 240.726562 200.359375 240.707031 200.765625 240.488281 201.523438 C 240 203.226562 235.648438 211.726562 235.21875 211.816406 C 235.085938 211.839844 235.066406 211.800781 235.121094 211.613281 C 235.269531 211.128906 236.078125 209.214844 236.875 207.476562 C 237.324219 206.484375 238.230469 204.484375 238.886719 203.027344 C 239.542969 201.570312 240.132812 200.34375 240.203125 200.300781 C 240.339844 200.214844 240.367188 200.214844 240.550781 200.289062 M 176.320312 200.894531 C 176.613281 201.132812 176.550781 201.382812 176.160156 201.53125 C 175.457031 201.796875 171.1875 201.726562 170.90625 201.445312 C 170.46875 201.007812 175.796875 200.464844 176.320312 200.894531 M 173.546875 202.726562 C 174.914062 202.886719 175.457031 203.207031 175.078125 203.621094 C 174.644531 204.105469 170.171875 203.46875 170.171875 202.921875 C 170.171875 202.65625 172.015625 202.550781 173.546875 202.726562 M 271.542969 203.65625 C 272.480469 205.773438 273.730469 210.488281 273.140625 209.683594 C 272.835938 209.269531 271.089844 204.375 270.949219 203.550781 C 270.835938 202.867188 271.226562 202.9375 271.542969 203.65625 M 114.03125 206.375 C 115.492188 206.753906 118.339844 208.066406 121.039062 209.605469 C 127.355469 213.203125 133.097656 216.964844 133.097656 217.5 C 133.097656 217.933594 127.703125 215.425781 124.285156 213.402344 C 122.925781 212.601562 117.074219 209.550781 115.285156 208.714844 C 112.390625 207.363281 111.695312 206.78125 112.476562 206.378906 C 112.828125 206.199219 113.347656 206.195312 114.03125 206.375 M 270.035156 206.75 C 271.054688 208.488281 272.425781 211.929688 272.101562 211.929688 C 271.84375 211.929688 269.402344 207.210938 269.363281 206.644531 C 269.332031 206.167969 269.730469 206.230469 270.035156 206.75 M 95.875 207.660156 C 97.863281 208.476562 103.0625 212.28125 102.695312 212.648438 C 102.335938 213.007812 95.042969 208.746094 94.679688 207.960938 C 94.445312 207.453125 95.015625 207.308594 95.875 207.660156 M 212.507812 208.972656 C 212.652344 209.222656 212.835938 209.78125 212.925781 210.246094 C 213.011719 210.703125 213.097656 211.132812 213.113281 211.195312 C 213.128906 211.257812 213.335938 211.339844 213.574219 211.382812 C 214.789062 211.582031 214.828125 212.089844 213.628906 212.121094 C 213.328125 212.128906 213.253906 212.167969 213.253906 212.328125 C 213.253906 212.5625 213.410156 212.605469 214.472656 212.660156 C 215.257812 212.699219 215.808594 212.921875 215.730469 213.160156 C 215.65625 213.394531 214.929688 213.550781 214.128906 213.507812 C 213.382812 213.464844 213.355469 213.472656 213.355469 213.6875 C 213.355469 213.882812 213.429688 213.917969 214.109375 214.019531 C 215.96875 214.296875 216.15625 214.933594 214.378906 214.933594 C 213.78125 214.933594 213.464844 214.96875 213.503906 215.03125 C 213.539062 215.085938 213.691406 215.132812 213.84375 215.132812 C 213.996094 215.132812 214.363281 215.203125 214.664062 215.289062 C 215.835938 215.632812 215.660156 216.035156 214.335938 216.035156 C 213.257812 216.035156 213.199219 216.316406 214.222656 216.570312 C 215.710938 216.9375 215.808594 217.597656 214.363281 217.515625 C 213.542969 217.472656 213.507812 217.578125 214.3125 217.671875 C 215.878906 217.855469 216.6875 218.855469 215.464844 219.097656 L 215.144531 219.164062 L 215.527344 219.335938 C 216.914062 219.964844 216.117188 220.558594 214.230469 220.300781 C 213.910156 220.257812 213.65625 220.261719 213.65625 220.308594 C 213.65625 220.355469 214.117188 220.449219 214.679688 220.511719 C 215.808594 220.636719 216.394531 220.832031 216.554688 221.132812 C 216.726562 221.449219 216.367188 221.734375 215.78125 221.75 C 214.273438 221.789062 212.242188 221.585938 211.234375 221.292969 C 210.550781 221.09375 210.445312 221.085938 210.3125 221.21875 C 210.054688 221.476562 209.191406 221.46875 207.828125 221.199219 C 205.949219 220.828125 204.839844 220.265625 205.609375 220.074219 C 205.867188 220.011719 205.867188 220.007812 205.484375 219.796875 C 204.910156 219.472656 204.980469 219.304688 205.738281 219.183594 L 206.382812 219.082031 L 205.839844 218.910156 C 204.402344 218.457031 203.988281 217.875 205 217.734375 L 205.398438 217.679688 L 204.875 217.390625 C 203.894531 216.851562 204.648438 216.636719 206.292969 216.984375 C 207.230469 217.183594 207.226562 217.109375 206.273438 216.804688 C 203.390625 215.875 203.449219 215.402344 206.398438 215.785156 C 206.90625 215.851562 206.675781 215.734375 205.699219 215.433594 C 204.167969 214.960938 203.847656 214.609375 204.898438 214.546875 L 205.5 214.511719 L 204.75 214.246094 C 203.867188 213.933594 203.703125 213.679688 204.316406 213.582031 C 204.941406 213.484375 205.347656 213.355469 205.070312 213.339844 C 204.753906 213.328125 204.148438 213.0625 204.148438 212.941406 C 204.148438 212.8125 204.796875 212.636719 205.585938 212.546875 C 206.539062 212.441406 206.46875 212.214844 205.425781 212.011719 C 203.558594 211.652344 203.644531 211.261719 205.660156 210.976562 L 206.121094 210.910156 L 206.179688 210.246094 C 206.367188 208.011719 207.167969 208.226562 207.695312 210.652344 C 207.734375 210.832031 207.820312 210.929688 207.941406 210.929688 C 208.585938 210.929688 208.820312 211.640625 208.28125 211.976562 C 207.789062 212.289062 207.878906 212.382812 208.777344 212.515625 C 210.40625 212.75 211.953125 212.632812 211.953125 212.269531 C 211.953125 212.070312 211.902344 212.03125 211.660156 212.03125 C 211.339844 212.03125 209.988281 211.761719 209.835938 211.671875 C 209.578125 211.511719 210.027344 211.34375 210.882812 211.277344 L 211.804688 211.210938 L 211.769531 210.289062 C 211.710938 208.664062 212.011719 208.125 212.507812 208.972656 M 283.644531 211.402344 C 283.046875 212.765625 282.914062 213.160156 282.996094 213.300781 C 283.09375 213.472656 283.101562 213.472656 283.101562 213.300781 C 283.105469 213.085938 283.570312 212.597656 283.695312 212.671875 C 283.761719 212.714844 284.308594 210.765625 284.660156 209.226562 C 284.726562 208.929688 284.667969 209.0625 283.644531 211.402344 M 186.183594 210.417969 C 186.273438 210.703125 186.015625 211.046875 185.113281 211.84375 C 179.769531 216.574219 177.277344 217.847656 181.546875 213.667969 C 184.550781 210.722656 185.964844 209.730469 186.183594 210.417969 M 180.707031 210.296875 C 181.363281 210.558594 179.917969 212.410156 178.269531 213.417969 C 177.089844 214.136719 177.074219 213.535156 178.234375 212.078125 C 179.296875 210.746094 180.203125 210.09375 180.707031 210.296875 M 113.09375 210.5625 C 115.285156 211.398438 126.410156 217.933594 126.847656 218.644531 C 127.523438 219.738281 113.953125 212.65625 111.839844 210.808594 C 111.09375 210.15625 111.710938 210.035156 113.09375 210.5625 M 158.113281 211.0625 L 158.113281 211.398438 L 158.96875 211.519531 C 159.441406 211.585938 159.929688 211.679688 160.058594 211.726562 C 160.199219 211.78125 160.328125 211.777344 160.386719 211.71875 C 160.441406 211.667969 160.90625 211.542969 161.425781 211.441406 L 162.367188 211.257812 L 161.4375 211.128906 C 160.929688 211.058594 160.488281 210.964844 160.460938 210.921875 C 160.433594 210.878906 160.179688 210.867188 159.890625 210.890625 C 159.488281 210.929688 158.316406 210.828125 158.140625 210.742188 C 158.125 210.734375 158.113281 210.878906 158.113281 211.0625 M 104.625 210.929688 C 106.429688 211.207031 115.109375 216.140625 114.632812 216.617188 C 114.226562 217.023438 103.945312 212.019531 103.71875 211.304688 C 103.65625 211.113281 103.894531 210.800781 104.070312 210.839844 C 104.101562 210.847656 104.351562 210.890625 104.625 210.929688 M 160.851562 212.269531 C 161.015625 212.703125 160.148438 212.863281 158.902344 212.628906 C 157.789062 212.417969 157.960938 212.710938 159.15625 213.070312 C 161.085938 213.648438 160.648438 214.472656 158.628906 214.070312 C 158.300781 214.003906 158.300781 214.003906 158.332031 214.382812 L 158.367188 214.757812 L 159.105469 214.949219 C 159.511719 215.054688 160.003906 215.207031 160.203125 215.292969 C 160.546875 215.433594 161.101562 215.425781 161.949219 215.265625 L 162.230469 215.214844 L 161.90625 215.046875 C 161.277344 214.726562 161.679688 214.457031 163.101562 214.242188 C 163.535156 214.175781 163.507812 214.167969 162.667969 214.105469 C 159.976562 213.902344 159.933594 213.199219 162.597656 212.976562 C 163.367188 212.910156 163.425781 212.886719 163.398438 212.695312 C 163.371094 212.507812 163.261719 212.472656 162.335938 212.363281 C 161.769531 212.296875 161.25 212.222656 161.1875 212.195312 C 160.949219 212.097656 160.796875 212.132812 160.851562 212.269531 M 209.402344 213.710938 C 209.167969 213.792969 209.421875 213.816406 210.585938 213.824219 C 212.066406 213.832031 212.066406 213.832031 212.035156 213.605469 C 212.007812 213.402344 211.929688 213.375 211.214844 213.308594 C 210.777344 213.269531 210.375 213.21875 210.3125 213.195312 C 210.253906 213.175781 210.089844 213.257812 209.953125 213.382812 C 209.816406 213.503906 209.566406 213.652344 209.402344 213.710938 M 209.355469 214.933594 C 209.300781 214.933594 209.253906 214.972656 209.253906 215.019531 C 209.253906 215.066406 209.441406 215.070312 209.675781 215.023438 C 209.910156 214.976562 210.585938 214.9375 211.179688 214.9375 C 212.167969 214.933594 212.800781 214.742188 211.878906 214.726562 C 211.671875 214.722656 211.144531 214.664062 210.707031 214.601562 C 209.933594 214.484375 209.902344 214.488281 209.683594 214.707031 C 209.5625 214.832031 209.414062 214.933594 209.355469 214.933594 M 209.816406 215.585938 C 209.941406 215.902344 209.5625 216.132812 208.910156 216.140625 L 208.300781 216.148438 L 209.1875 216.390625 C 210.09375 216.640625 210.574219 216.898438 210.757812 217.242188 C 210.847656 217.40625 210.972656 217.433594 211.707031 217.433594 C 212.628906 217.433594 212.808594 217.304688 212.128906 217.136719 C 209.574219 216.5 209.183594 216.058594 211.261719 216.15625 C 212.742188 216.226562 212.761719 216.03125 211.296875 215.792969 C 210.714844 215.699219 210.140625 215.582031 210.019531 215.535156 C 209.898438 215.484375 209.792969 215.441406 209.78125 215.4375 C 209.769531 215.433594 209.785156 215.5 209.816406 215.585938 M 158.417969 215.972656 C 158.5 216.050781 158.828125 216.1875 159.148438 216.277344 C 159.609375 216.40625 159.765625 216.507812 159.898438 216.746094 L 160.066406 217.050781 L 161.265625 217 C 162.308594 216.957031 164.289062 216.671875 164.195312 216.578125 C 164.179688 216.558594 163.691406 216.535156 163.117188 216.523438 C 161.777344 216.5 160.585938 216.371094 159.902344 216.175781 C 159.609375 216.09375 159.230469 215.984375 159.066406 215.9375 C 158.546875 215.792969 158.246094 215.808594 158.417969 215.972656 M 292.613281 217.007812 C 293.46875 218.457031 295.839844 225.339844 295.488281 225.339844 C 295.335938 225.339844 294.929688 224.441406 293.695312 221.386719 C 293.207031 220.175781 292.828125 219.320312 292.859375 219.484375 C 294.410156 228.128906 293.824219 229.609375 292.105469 221.398438 C 291.402344 218.039062 291.28125 217.007812 291.574219 216.859375 C 292.109375 216.585938 292.386719 216.625 292.613281 217.007812 M 290.171875 218.101562 C 290.742188 219.390625 292.546875 227.347656 292.371094 227.804688 C 292.332031 227.90625 292.269531 227.9375 292.21875 227.882812 C 291.925781 227.570312 289.5 218.878906 289.472656 218.039062 C 289.449219 217.292969 289.828125 217.328125 290.171875 218.101562 M 208.902344 217.71875 C 209.324219 217.984375 209.570312 218.285156 209.535156 218.5 C 209.503906 218.671875 209.59375 218.6875 210.804688 218.691406 C 212.097656 218.699219 212.101562 218.699219 211.496094 218.574219 C 210.675781 218.402344 209.425781 217.960938 209.300781 217.800781 C 209.191406 217.652344 208.980469 217.554688 208.75 217.542969 C 208.667969 217.539062 208.738281 217.617188 208.902344 217.71875 M 136.257812 218.332031 C 137.394531 218.902344 140.996094 221.761719 142.550781 223.332031 C 144.238281 225.035156 143.117188 224.625 140.089844 222.4375 C 139.671875 222.136719 138.476562 221.273438 137.4375 220.519531 C 135.410156 219.050781 134.898438 218.613281 134.898438 218.332031 C 134.898438 217.941406 135.476562 217.941406 136.257812 218.332031 M 209.339844 219.480469 C 209.074219 219.703125 209.066406 219.726562 209.246094 219.785156 C 209.355469 219.820312 209.546875 219.96875 209.675781 220.117188 C 210.070312 220.578125 210.34375 220.667969 211.003906 220.542969 C 211.328125 220.484375 211.945312 220.4375 212.375 220.4375 C 213.53125 220.4375 213.351562 220.148438 212.035156 219.898438 C 211.523438 219.800781 210.789062 219.613281 210.402344 219.488281 C 210.015625 219.359375 209.6875 219.25 209.667969 219.246094 C 209.648438 219.238281 209.5 219.34375 209.339844 219.480469 M 289.453125 219.53125 C 289.960938 220.089844 290.476562 226.589844 290.011719 226.589844 C 289.71875 226.589844 288.960938 222.410156 288.890625 220.398438 C 288.855469 219.417969 289.0625 219.097656 289.453125 219.53125 M 288.226562 221.160156 C 288.433594 221.539062 288.453125 223.21875 288.261719 224.363281 C 287.472656 229.152344 284.683594 240.449219 284.292969 240.449219 C 284.09375 240.449219 284.097656 240.113281 284.304688 238.730469 C 284.714844 235.964844 285.023438 234.253906 285.960938 229.492188 C 286.480469 226.851562 287.015625 224.058594 287.152344 223.289062 C 287.503906 221.277344 287.515625 221.246094 287.742188 221.082031 C 288.023438 220.886719 288.082031 220.898438 288.226562 221.160156 M 98.722656 226.285156 C 101.171875 226.925781 112.859375 231.273438 117.085938 233.121094 C 118.238281 233.625 118.632812 233.894531 118.363281 234 C 117.683594 234.257812 99.492188 228.191406 97.332031 226.980469 C 95.835938 226.144531 96.640625 225.742188 98.722656 226.285156 M 203.523438 229.445312 C 204.738281 229.933594 202.304688 230.925781 190.4375 234.78125 C 185.808594 236.285156 181.042969 237.625 180.886719 237.472656 C 180.722656 237.304688 180.890625 237.109375 181.40625 236.882812 C 184.960938 235.304688 191.105469 233.011719 197.34375 230.9375 C 201.285156 229.625 202.964844 229.222656 203.523438 229.445312 M 180.53125 230.292969 C 180.53125 230.941406 178.355469 232.113281 176.078125 232.6875 C 172.386719 233.621094 163.042969 234.683594 162.851562 234.191406 C 162.71875 233.84375 164.613281 233.328125 168.671875 232.601562 C 173.722656 231.695312 175.5 231.347656 178.179688 230.742188 C 180.410156 230.238281 180.53125 230.214844 180.53125 230.292969 M 252.742188 233.863281 C 252.785156 233.929688 252.695312 234.082031 252.523438 234.222656 C 249.769531 236.535156 249.214844 237.238281 246.597656 241.667969 C 243.070312 247.648438 242.414062 247.082031 245.578125 240.792969 C 247.628906 236.71875 249.128906 234.878906 251.125 233.996094 C 251.726562 233.730469 252.617188 233.65625 252.742188 233.863281 M 119.785156 235.074219 C 123.488281 236.925781 125.945312 238.390625 125.832031 238.683594 C 125.65625 239.148438 122.675781 237.679688 119.210938 235.421875 C 117.257812 234.148438 117.5625 233.964844 119.785156 235.074219 M 112.351562 234.699219 C 114.1875 235.195312 117 236.867188 121.9375 240.402344 C 126.964844 243.996094 129.082031 246.078125 126.101562 244.492188 C 124.472656 243.625 123.371094 242.964844 120.433594 241.097656 C 116.972656 238.894531 114.578125 237.460938 112.902344 236.589844 C 110.695312 235.445312 110.128906 234.882812 110.949219 234.652344 C 111.4375 234.519531 111.710938 234.527344 112.351562 234.699219 M 139.355469 235.089844 C 139.445312 235.226562 140.074219 237.019531 140.753906 239.070312 C 141.820312 242.300781 142.847656 245.03125 144.246094 248.351562 C 144.636719 249.273438 144.683594 249.507812 144.460938 249.425781 C 144.335938 249.375 144.335938 249.421875 144.460938 249.777344 C 144.703125 250.457031 144.503906 250.453125 143.957031 249.761719 C 143.367188 249.015625 143.414062 249.207031 144.195312 250.683594 C 144.953125 252.121094 145.046875 252.417969 144.695312 252.304688 C 144.511719 252.246094 144.5 252.261719 144.597656 252.441406 C 145.003906 253.207031 144.53125 253.085938 143.773438 252.234375 C 143.417969 251.835938 143.007812 251.375 142.859375 251.207031 C 142.671875 251 142.710938 251.09375 142.980469 251.507812 C 144.625 254.035156 144.984375 255.113281 143.707031 253.6875 L 143.191406 253.109375 L 143.898438 254.253906 C 144.285156 254.882812 144.605469 255.457031 144.605469 255.527344 C 144.605469 255.769531 144.359375 255.667969 144.03125 255.285156 C 143.800781 255.015625 143.710938 254.960938 143.707031 255.085938 C 143.703125 255.289062 143.5 255.316406 143.320312 255.136719 C 143.25 255.066406 143.464844 255.484375 143.800781 256.058594 C 144.640625 257.515625 144.5 258.039062 143.523438 257.117188 C 143.117188 256.734375 143.140625 256.789062 143.949219 258.0625 C 144.796875 259.394531 144.996094 259.804688 144.859375 259.945312 C 144.789062 260.011719 144.492188 259.714844 143.371094 258.464844 L 142.789062 257.8125 L 143.261719 258.714844 C 143.519531 259.210938 143.792969 259.714844 143.867188 259.835938 C 144.28125 260.511719 143.890625 260.515625 143.269531 259.839844 C 142.75 259.273438 142.746094 259.269531 143.503906 260.558594 C 144.671875 262.554688 144.878906 263.351562 144.019531 262.542969 L 143.675781 262.21875 L 143.941406 262.617188 C 144.257812 263.09375 144.269531 263.207031 143.996094 263.136719 C 143.800781 263.085938 143.800781 263.09375 143.949219 263.320312 C 144.363281 263.953125 144.027344 264.03125 143.425781 263.441406 L 142.992188 263.015625 L 143.546875 263.96875 C 144.125 264.957031 144.199219 265.167969 143.964844 265.167969 C 143.675781 265.167969 140.089844 260.949219 138.667969 258.9375 C 138.394531 258.550781 138.238281 258.40625 138.183594 258.488281 C 138.136719 258.566406 138.234375 258.746094 138.4375 258.964844 C 139.167969 259.746094 141.058594 262.304688 142.5 264.46875 C 142.84375 264.992188 143.160156 265.453125 143.199219 265.496094 C 143.238281 265.539062 143.648438 265.414062 144.113281 265.214844 C 146.621094 264.132812 148.125 263.605469 149.222656 263.421875 C 149.585938 263.363281 149.589844 263.355469 149.644531 262.789062 C 149.785156 261.355469 149.804688 260.609375 149.699219 260.890625 C 149.457031 261.519531 149.277344 261.222656 149.332031 260.289062 L 149.386719 259.414062 L 149.230469 259.890625 C 148.949219 260.742188 148.664062 260.566406 148.742188 259.589844 C 148.785156 259.039062 148.773438 258.863281 148.699219 258.988281 C 148.246094 259.765625 148.207031 258.375 148.613281 255.628906 C 148.71875 254.902344 148.808594 254.304688 148.808594 254.296875 C 148.808594 254.285156 148.710938 254.304688 148.59375 254.335938 C 148.386719 254.390625 148.378906 254.367188 148.433594 253.902344 C 148.484375 253.5 148.476562 253.460938 148.390625 253.6875 C 148.335938 253.835938 148.226562 253.960938 148.148438 253.960938 C 147.964844 253.960938 147.964844 253.535156 148.148438 252.054688 C 148.414062 249.933594 148.449219 248.855469 148.253906 248.855469 C 148.128906 248.855469 148.101562 248.796875 148.144531 248.625 C 148.175781 248.5 148.269531 247.945312 148.351562 247.398438 C 148.433594 246.847656 148.570312 246.070312 148.65625 245.667969 C 148.859375 244.695312 148.851562 244.6875 148.496094 245.527344 C 148.21875 246.183594 148.007812 246.398438 147.871094 246.175781 C 147.601562 245.742188 149.171875 237.921875 149.679688 237.179688 C 149.820312 236.972656 149.996094 236.59375 150.074219 236.335938 C 150.359375 235.363281 151.121094 235.054688 151.550781 235.734375 C 152.003906 236.449219 156.421875 245.277344 156.386719 245.390625 C 156.363281 245.453125 156.480469 245.730469 156.644531 246.003906 C 156.808594 246.28125 156.957031 246.617188 156.96875 246.753906 C 156.984375 246.894531 157.054688 247.148438 157.125 247.328125 C 157.375 247.941406 157.101562 247.789062 156.003906 246.699219 C 154.578125 245.28125 154.710938 245.636719 156.402344 247.753906 C 157.6875 249.363281 157.867188 249.65625 157.566406 249.65625 C 157.46875 249.65625 157.65625 249.976562 158.066406 250.519531 C 159.234375 252.070312 158.789062 252.046875 157.089844 250.472656 C 156.515625 249.941406 156.492188 250 156.988281 250.746094 C 157.511719 251.53125 157.796875 252.183594 157.636719 252.234375 C 157.570312 252.257812 157.515625 252.363281 157.515625 252.46875 C 157.515625 252.773438 157.308594 252.695312 156.777344 252.183594 C 156.335938 251.757812 156.359375 251.796875 157 252.597656 C 157.394531 253.085938 157.714844 253.523438 157.714844 253.574219 C 157.714844 253.695312 157.476562 253.683594 157.347656 253.554688 C 157.199219 253.40625 157.859375 254.703125 158.109375 255.054688 C 158.535156 255.652344 158.261719 255.882812 157.757812 255.351562 C 157.597656 255.183594 157.335938 254.949219 157.175781 254.835938 C 156.832031 254.589844 156.832031 254.59375 157.609375 255.84375 C 157.886719 256.292969 158.113281 256.726562 158.113281 256.8125 C 158.113281 256.992188 157.804688 257.011719 157.636719 256.847656 C 157.574219 256.78125 157.8125 257.265625 158.167969 257.921875 C 159.105469 259.648438 158.984375 259.96875 157.828125 258.839844 L 157.1875 258.214844 L 157.515625 258.8125 C 157.699219 259.144531 157.910156 259.503906 157.980469 259.613281 C 158.375 260.195312 157.882812 260.21875 157.367188 259.640625 C 156.640625 258.828125 155.375 257.515625 155.460938 257.664062 C 155.511719 257.746094 155.894531 258.261719 156.316406 258.8125 C 157.398438 260.234375 158.113281 261.300781 158.113281 261.496094 C 158.113281 261.714844 157.933594 261.710938 157.691406 261.496094 C 157.523438 261.34375 157.511719 261.34375 157.570312 261.492188 C 157.605469 261.582031 157.597656 261.714844 157.550781 261.785156 C 157.429688 261.976562 157.417969 262.160156 157.523438 262.222656 C 157.675781 262.316406 157.625 262.464844 157.441406 262.464844 C 157.347656 262.464844 157.054688 262.253906 156.792969 261.996094 C 156.199219 261.410156 156.121094 261.46875 156.554688 262.171875 C 156.738281 262.472656 156.949219 262.882812 157.019531 263.085938 L 157.148438 263.453125 L 157.632812 263.207031 C 158.386719 262.828125 159.191406 262.664062 160.742188 262.574219 C 162.480469 262.480469 162.71875 262.386719 163.425781 261.554688 C 164.90625 259.8125 165.671875 259.308594 167.347656 258.96875 C 168.960938 258.636719 169.445312 258.277344 170.667969 256.464844 C 172.734375 253.414062 174.398438 253.410156 176.476562 256.449219 C 177.203125 257.511719 176.578125 257.867188 175.429688 257.042969 C 173.246094 255.480469 173.402344 255.457031 171.890625 257.574219 C 170.527344 259.476562 169.542969 260.183594 167.671875 260.578125 C 166.246094 260.882812 166.0625 261 165.140625 262.195312 C 163.738281 264.011719 163.121094 264.355469 160.773438 264.617188 C 159.230469 264.785156 158.882812 264.898438 157.613281 265.617188 C 155.894531 266.59375 154.546875 266.816406 152.984375 266.382812 C 152.4375 266.230469 152.308594 266.222656 152.308594 266.332031 C 152.308594 266.40625 152.21875 266.46875 152.109375 266.46875 C 151.976562 266.46875 151.910156 266.402344 151.910156 266.269531 C 151.910156 265.894531 151.734375 266.066406 151.667969 266.503906 C 151.511719 267.542969 151.109375 267.367188 151.109375 266.261719 C 151.109375 265.730469 150.964844 265.613281 150.808594 266.019531 C 150.671875 266.378906 150.410156 266.34375 150.410156 265.96875 C 150.410156 265.390625 149.148438 265.679688 146.242188 266.929688 C 143.867188 267.945312 144.074219 267.816406 144.253906 268.167969 C 144.558594 268.757812 144.347656 268.851562 143.835938 268.351562 C 143.367188 267.902344 143.1875 268.089844 143.546875 268.65625 C 144.015625 269.402344 143.757812 269.507812 143.054688 268.863281 C 142.683594 268.519531 142.570312 268.464844 142.371094 268.535156 L 142.128906 268.621094 L 142.617188 269.46875 C 143.414062 270.851562 143.226562 270.953125 142.054688 269.773438 C 141.011719 268.726562 141.003906 268.738281 141.765625 270.324219 C 142.828125 272.53125 142.160156 272.320312 140.328125 269.867188 C 139.679688 269 139.566406 269.203125 140.015625 270.421875 C 140.425781 271.539062 140.464844 271.722656 140.296875 271.828125 C 140.171875 271.90625 140.097656 271.820312 139.289062 270.621094 C 138.953125 270.128906 138.667969 269.710938 138.660156 269.699219 C 138.648438 269.6875 138.484375 269.722656 138.292969 269.777344 C 138.105469 269.835938 137.140625 270.0625 136.148438 270.28125 C 135.035156 270.53125 134.316406 270.742188 134.269531 270.828125 C 134.222656 270.910156 134.132812 270.972656 134.0625 270.972656 C 133.996094 270.972656 133.859375 271.109375 133.761719 271.273438 C 133.515625 271.691406 133.296875 271.664062 133.296875 271.214844 C 133.296875 270.925781 133.265625 270.867188 133.121094 270.910156 C 130.988281 271.519531 127.09375 271.875 127.015625 271.464844 C 126.964844 271.199219 129.410156 270.148438 131.296875 269.625 C 131.816406 269.480469 132.328125 269.335938 132.429688 269.308594 C 132.570312 269.265625 132.601562 269.183594 132.566406 268.992188 C 132.5 268.648438 133.332031 266.988281 134.699219 264.714844 C 135.261719 263.78125 135.8125 262.871094 135.917969 262.691406 C 136.28125 262.089844 136.03125 262.363281 135.085938 263.59375 C 133.847656 265.210938 132.804688 266.46875 132.011719 267.296875 C 131.089844 268.253906 130.796875 268.183594 131.40625 267.152344 C 131.578125 266.859375 131.726562 266.488281 131.738281 266.320312 C 131.75 266.15625 132.011719 265.59375 132.320312 265.070312 C 133 263.933594 132.996094 263.925781 132.152344 264.5625 C 130.90625 265.507812 130.871094 265.148438 132.054688 263.570312 C 133.214844 262.019531 133.261719 261.894531 132.351562 262.742188 C 130.824219 264.167969 131.082031 263.214844 132.871094 260.816406 L 133.320312 260.214844 L 132.800781 260.789062 C 131.371094 262.371094 131.957031 260.625 134.003906 257.210938 C 134.886719 255.738281 135.511719 254.34375 135.359375 254.191406 C 135.339844 254.171875 135.136719 254.40625 134.910156 254.707031 C 134.246094 255.582031 133.96875 255.414062 134.457031 254.433594 L 134.71875 253.910156 L 134.429688 254.1875 C 134.117188 254.476562 133.894531 254.542969 133.902344 254.335938 C 133.910156 254.066406 134.15625 253.289062 134.304688 253.054688 C 134.644531 252.523438 135.351562 250.960938 135.757812 249.859375 L 135.996094 249.207031 L 135.507812 249.746094 C 135.070312 250.234375 134.796875 250.347656 134.796875 250.042969 C 134.796875 249.914062 135.832031 247.863281 136.148438 247.355469 C 136.339844 247.054688 136.800781 245.792969 136.800781 245.574219 C 136.800781 245.542969 136.519531 245.898438 136.175781 246.367188 C 134.414062 248.757812 133.71875 249.242188 134.699219 247.390625 L 135.101562 246.636719 L 134.601562 247.050781 C 133.4375 248.027344 133.832031 246.78125 135.457031 244.355469 C 135.859375 243.75 136.238281 243.019531 136.492188 242.351562 C 136.710938 241.773438 137.164062 240.605469 137.5 239.75 C 137.894531 238.746094 138.160156 237.886719 138.257812 237.3125 C 138.425781 236.300781 138.53125 236.046875 138.789062 236.046875 C 138.949219 236.046875 138.972656 235.96875 138.960938 235.480469 C 138.949219 234.839844 139.097656 234.695312 139.355469 235.089844 M 179.765625 235.097656 C 179.953125 235.582031 178.875 235.855469 171.523438 237.195312 C 163.296875 238.691406 162.59375 238.203125 170.574219 236.535156 C 177.484375 235.089844 179.632812 234.753906 179.765625 235.097656 M 241.886719 235.621094 C 242.207031 236.464844 241.203125 238.535156 239.121094 241.308594 C 236.789062 244.410156 230.484375 250.894531 226.679688 254.097656 C 224.285156 256.113281 225.484375 254.15625 229.117188 250.109375 C 229.5625 249.613281 230.828125 248.214844 231.929688 247.003906 C 235.441406 243.136719 237.976562 240.078125 239.449219 237.921875 C 240.976562 235.6875 241.664062 235.039062 241.886719 235.621094 M 125.617188 236.179688 C 125.90625 236.417969 125.964844 236.546875 125.78125 236.546875 C 125.628906 236.546875 125.089844 236.152344 125.089844 236.039062 C 125.089844 235.882812 125.328125 235.945312 125.617188 236.179688 M 139.121094 239.125 C 139.058594 239.332031 138.980469 239.605469 138.945312 239.734375 L 138.878906 239.972656 L 139.1875 239.746094 C 139.441406 239.558594 139.519531 239.539062 139.644531 239.644531 C 139.757812 239.738281 139.738281 239.628906 139.574219 239.261719 C 139.304688 238.652344 139.265625 238.640625 139.121094 239.125 M 139.621094 240.800781 C 139.503906 241.503906 139.476562 241.4375 139.859375 241.378906 C 140.203125 241.328125 140.214844 241.214844 139.980469 240.421875 C 139.839844 239.945312 139.75 240.039062 139.621094 240.800781 M 140.203125 242.109375 C 140.203125 242.273438 140.703125 243.1875 140.761719 243.128906 C 140.777344 243.109375 140.695312 242.839844 140.574219 242.523438 C 140.355469 241.96875 140.203125 241.792969 140.203125 242.109375 M 119.441406 243.464844 C 121.164062 244.558594 125.609375 248.386719 125.453125 248.640625 C 125.375 248.765625 125.21875 248.667969 123.640625 247.496094 C 122.203125 246.425781 118.6875 243.402344 118.6875 243.234375 C 118.6875 243.074219 118.953125 243.15625 119.441406 243.464844 M 153.308594 243.839844 C 153.386719 244.109375 153.691406 244.652344 153.769531 244.652344 C 153.785156 244.652344 153.730469 244.484375 153.644531 244.277344 C 153.339844 243.542969 153.152344 243.300781 153.308594 243.839844 M 230.359375 244.996094 C 230.738281 245.453125 228.605469 248.152344 226.367188 250.050781 C 222.710938 253.144531 213.851562 259.359375 213.449219 259.109375 C 213.089844 258.890625 214.847656 257.328125 219.757812 253.507812 C 222.800781 251.140625 225.566406 248.886719 226.988281 247.625 C 228.257812 246.492188 229.976562 245.015625 230.128906 244.925781 C 230.191406 244.886719 230.296875 244.917969 230.359375 244.996094 M 120.707031 247.003906 C 122.746094 248.195312 126.007812 250.6875 125.855469 250.933594 C 125.671875 251.234375 119.800781 247.324219 119.707031 246.839844 C 119.648438 246.523438 119.980469 246.578125 120.707031 247.003906 M 137.898438 248.125 C 137.898438 248.324219 138.066406 248.203125 138.128906 247.953125 C 138.175781 247.78125 138.160156 247.765625 138.042969 247.863281 C 137.964844 247.925781 137.898438 248.046875 137.898438 248.125 M 258.65625 251.816406 C 258.753906 252.074219 258.390625 252.457031 257.230469 253.332031 C 255.75 254.445312 254.875 255.386719 254.09375 256.71875 C 252.347656 259.703125 250.988281 261.570312 249.460938 263.101562 C 247.5625 265 247.84375 263.78125 250.183594 259.96875 C 250.804688 258.953125 251.609375 257.558594 251.96875 256.867188 C 253.023438 254.832031 253.570312 254.148438 255.035156 253.035156 C 256.398438 252 258.460938 251.304688 258.65625 251.816406 M 138.207031 254.746094 C 138.125 254.902344 138.195312 255.03125 138.589844 255.472656 C 138.855469 255.769531 139.191406 256.148438 139.339844 256.3125 C 139.484375 256.476562 139.320312 256.152344 138.976562 255.589844 C 138.261719 254.421875 138.335938 254.507812 138.207031 254.746094 M 249.910156 254.886719 C 250.015625 255.191406 248.308594 259.601562 247.226562 261.816406 C 245.371094 265.621094 241.59375 271.066406 238.136719 274.925781 C 237.773438 275.332031 237.664062 275.402344 237.558594 275.300781 C 237.34375 275.085938 238.410156 273.109375 240.40625 270.023438 C 243.609375 265.074219 244.695312 263.230469 246.050781 260.445312 C 247.894531 256.65625 249.644531 254.136719 249.910156 254.886719 M 136.816406 257.851562 C 136.578125 258.160156 136.3125 258.550781 136.226562 258.714844 L 136.074219 259.015625 L 136.339844 258.769531 C 136.773438 258.367188 137.566406 257.21875 137.515625 257.0625 C 137.476562 256.949219 137.445312 256.957031 137.359375 257.101562 C 137.296875 257.203125 137.054688 257.539062 136.816406 257.851562 M 137.101562 260.890625 C 137.101562 260.929688 137.207031 260.964844 137.339844 260.964844 C 137.472656 260.964844 137.660156 260.996094 137.753906 261.03125 C 137.890625 261.082031 137.875 261.023438 137.6875 260.734375 L 137.449219 260.371094 L 137.277344 260.59375 C 137.183594 260.714844 137.101562 260.847656 137.101562 260.890625 M 138.449219 262.050781 L 138.820312 262.417969 L 138.488281 261.9375 C 138.304688 261.671875 138.136719 261.507812 138.117188 261.570312 C 138.09375 261.636719 138.242188 261.851562 138.449219 262.050781 M 153.308594 263.171875 C 153.53125 263.632812 153.710938 264.0625 153.710938 264.125 C 153.710938 264.285156 153.945312 264.367188 154.382812 264.367188 L 154.738281 264.367188 L 154.351562 263.9375 C 154.136719 263.703125 153.746094 263.226562 153.480469 262.878906 C 152.855469 262.0625 152.808594 262.140625 153.308594 263.171875 M 150.011719 263.292969 C 150.007812 263.332031 150.078125 263.367188 150.160156 263.367188 C 150.273438 263.367188 150.308594 263.246094 150.300781 262.84375 L 150.296875 262.316406 L 150.152344 262.765625 C 150.074219 263.015625 150.011719 263.25 150.011719 263.292969 M 155.476562 263.640625 C 155.675781 264.125 155.742188 264.1875 155.953125 264.105469 C 156.105469 264.050781 156.074219 263.988281 155.75 263.652344 C 155.289062 263.179688 155.289062 263.179688 155.476562 263.640625 M 205.449219 265.917969 C 205.9375 266.507812 201.65625 270.035156 197.792969 272.226562 C 193.777344 274.507812 185.207031 277.984375 176.980469 280.675781 C 170.816406 282.691406 173.726562 281.066406 183.503906 277.035156 C 194.101562 272.667969 197.019531 271.195312 203.070312 267.15625 C 205.285156 265.675781 205.257812 265.691406 205.449219 265.917969 M 136.292969 267.285156 C 135.941406 267.988281 135.832031 268.277344 135.949219 268.234375 C 136.039062 268.199219 136.449219 268.074219 136.859375 267.953125 C 137.269531 267.835938 137.59375 267.710938 137.574219 267.679688 C 137 266.550781 136.851562 266.269531 136.828125 266.269531 C 136.8125 266.269531 136.570312 266.726562 136.292969 267.285156 M 133.195312 269.050781 C 133.453125 269.144531 133.964844 268.777344 134.085938 268.410156 C 134.152344 268.195312 134.234375 267.953125 134.261719 267.871094 C 134.289062 267.789062 134.042969 268.011719 133.710938 268.371094 C 133.382812 268.730469 133.148438 269.035156 133.195312 269.050781 M 235.519531 268.464844 C 236.070312 269.539062 234.59375 272.148438 231.847656 274.949219 C 230.140625 276.695312 230.542969 275.496094 232.792969 272.144531 C 233.355469 271.308594 234.082031 270.105469 234.410156 269.472656 C 235.148438 268.039062 235.25 267.949219 235.519531 268.464844 M 184.214844 272.496094 C 184.824219 273.105469 182.484375 274.367188 178.730469 275.457031 C 173.871094 276.867188 164.414062 278.949219 163.855469 278.738281 C 163.617188 278.644531 163.707031 278.425781 164.042969 278.292969 C 165.628906 277.671875 169.039062 276.601562 172.226562 275.726562 C 174.921875 274.984375 179.113281 273.78125 180.582031 273.320312 C 183.457031 272.421875 184.015625 272.292969 184.214844 272.496094 M 165.601562 274.003906 C 166.003906 274.488281 164.378906 275 161.117188 275.417969 C 158.707031 275.730469 156.277344 275.617188 157.5625 275.257812 C 160.699219 274.375 165.3125 273.65625 165.601562 274.003906 " fill-opacity="1" fill-rule="evenodd"/></g></svg>