<svg xmlns="http://www.w3.org/2000/svg" xmlns:xlink="http://www.w3.org/1999/xlink" width="500" zoomAndPan="magnify" viewBox="0 0 375 187.499995" height="250" preserveAspectRatio="xMidYMid meet" version="1.0"><defs><g/></defs><g fill="#ffffff" fill-opacity="1"><g transform="translate(29.283037, 180.285982)"><g><path d="M 3.75 -39.53125 L 10.375 -39.53125 L 10.375 -3.28125 L 18.578125 -3.28125 L 18.578125 0 L 3.75 0 Z M 3.75 -39.53125 "/></g></g></g><g fill="#ffffff" fill-opacity="1"><g transform="translate(49.899738, 180.285982)"><g><path d="M 7.09375 -34.625 L 6.28125 -39.53125 L 12.90625 -39.53125 L 19.453125 0 L 12.90625 0 L 11.546875 -8.265625 L 6.015625 -8.265625 L 4.640625 0 L 1.359375 0 Z M 11 -11.546875 L 8.8125 -24.71875 L 6.5625 -11.546875 Z M 11 -11.546875 "/></g></g></g><g fill="#ffffff" fill-opacity="1"><g transform="translate(70.721234, 180.285982)"><g/></g></g><g fill="#ffffff" fill-opacity="1"><g transform="translate(84.374681, 180.285982)"><g><path d="M 4.375 -34.625 L 2.734375 -39.53125 L 11 -39.53125 C 12.90625 -39.53125 14.570312 -39.335938 16 -38.953125 C 17.4375 -38.566406 18.644531 -37.929688 19.625 -37.046875 C 20.601562 -36.160156 21.332031 -34.972656 21.8125 -33.484375 C 22.289062 -32.003906 22.53125 -30.175781 22.53125 -28 C 22.53125 -25.8125 22.289062 -23.976562 21.8125 -22.5 C 21.332031 -21.019531 20.601562 -19.832031 19.625 -18.9375 C 18.644531 -18.050781 17.4375 -17.414062 16 -17.03125 C 14.570312 -16.644531 12.90625 -16.453125 11 -16.453125 L 11 0 L 4.375 0 Z M 11 -19.671875 C 12.082031 -19.671875 12.976562 -19.90625 13.6875 -20.375 C 14.394531 -20.851562 14.953125 -21.488281 15.359375 -22.28125 C 15.773438 -23.082031 16.0625 -23.972656 16.21875 -24.953125 C 16.375 -25.929688 16.453125 -26.945312 16.453125 -28 C 16.453125 -29.039062 16.375 -30.050781 16.21875 -31.03125 C 16.0625 -32.007812 15.773438 -32.894531 15.359375 -33.6875 C 14.953125 -34.488281 14.394531 -35.128906 13.6875 -35.609375 C 12.976562 -36.085938 12.082031 -36.347656 11 -36.390625 Z M 11 -19.671875 "/></g></g></g><g fill="#ffffff" fill-opacity="1"><g transform="translate(108.950882, 180.285982)"><g><path d="M 7.09375 -34.625 L 6.28125 -39.53125 L 12.90625 -39.53125 L 19.453125 0 L 12.90625 0 L 11.546875 -8.265625 L 6.015625 -8.265625 L 4.640625 0 L 1.359375 0 Z M 11 -11.546875 L 8.8125 -24.71875 L 6.5625 -11.546875 Z M 11 -11.546875 "/></g></g></g><g fill="#ffffff" fill-opacity="1"><g transform="translate(129.772378, 180.285982)"><g><path d="M 2.046875 -4.921875 L 9.484375 -36.25 L 3.6875 -36.25 L 2.046875 -39.53125 L 16.859375 -39.53125 L 16.859375 -34.625 L 9.421875 -3.28125 L 15.234375 -3.28125 L 16.859375 0 L 2.046875 0 Z M 2.046875 -4.921875 "/></g></g></g><g fill="#ffffff" fill-opacity="1"><g transform="translate(148.682396, 180.285982)"><g/></g></g><g fill="#ffffff" fill-opacity="1"><g transform="translate(162.335843, 180.285982)"><g><path d="M 1.359375 -39.53125 L 7.984375 -39.53125 L 12.90625 -9.90625 L 17.828125 -39.53125 L 21.171875 -39.53125 L 14.546875 0 L 7.984375 0 Z M 1.359375 -39.53125 "/></g></g></g><g fill="#ffffff" fill-opacity="1"><g transform="translate(184.864023, 180.285982)"><g><path d="M 3.40625 -39.53125 L 18.234375 -39.53125 L 16.59375 -36.25 L 10.03125 -36.25 L 10.03125 -24.71875 L 16.59375 -24.71875 L 14.953125 -21.4375 L 10.03125 -21.4375 L 10.03125 -3.28125 L 18.234375 -3.28125 L 18.234375 0 L 3.40625 0 Z M 3.40625 -39.53125 "/></g></g></g><g fill="#ffffff" fill-opacity="1"><g transform="translate(205.139387, 180.285982)"><g><path d="M 4.375 -35.171875 L 2.734375 -39.53125 L 9.28125 -39.53125 L 19.1875 -13.59375 L 19.1875 -39.53125 L 22.46875 -39.53125 L 22.46875 0 L 17.546875 0 L 7.640625 -26.359375 L 7.640625 0 L 4.375 0 Z M 4.375 -35.171875 "/></g></g></g><g fill="#ffffff" fill-opacity="1"><g transform="translate(231.353984, 180.285982)"><g><path d="M 8.671875 -36.25 L 2.046875 -36.25 L 2.046875 -39.53125 L 21.84375 -39.53125 L 21.84375 -36.25 L 15.234375 -36.25 L 15.234375 0 L 8.671875 0 Z M 8.671875 -36.25 "/></g></g></g><g fill="#ffffff" fill-opacity="1"><g transform="translate(255.247511, 180.285982)"><g><path d="M 12.625 0 C 11.257812 0 9.972656 -0.203125 8.765625 -0.609375 C 7.566406 -1.023438 6.519531 -1.640625 5.625 -2.453125 C 4.738281 -3.273438 4.035156 -4.3125 3.515625 -5.5625 C 2.992188 -6.8125 2.734375 -8.257812 2.734375 -9.90625 L 2.734375 -39.53125 L 9.359375 -39.53125 L 9.359375 -9.90625 C 9.359375 -9.445312 9.367188 -8.929688 9.390625 -8.359375 C 9.410156 -7.796875 9.519531 -7.25 9.71875 -6.71875 C 9.925781 -6.195312 10.257812 -5.765625 10.71875 -5.421875 C 11.175781 -5.085938 11.8125 -4.921875 12.625 -4.921875 C 13.445312 -4.921875 14.070312 -5.085938 14.5 -5.421875 C 14.9375 -5.765625 15.253906 -6.195312 15.453125 -6.71875 C 15.660156 -7.25 15.785156 -7.796875 15.828125 -8.359375 C 15.878906 -8.929688 15.90625 -9.445312 15.90625 -9.90625 L 15.90625 -39.53125 L 22.53125 -39.53125 L 22.53125 -9.90625 C 22.53125 -8.257812 22.269531 -6.8125 21.75 -5.5625 C 21.226562 -4.3125 20.519531 -3.273438 19.625 -2.453125 C 18.738281 -1.640625 17.691406 -1.023438 16.484375 -0.609375 C 15.285156 -0.203125 14 0 12.625 0 Z M 12.625 0 "/></g></g></g><g fill="#ffffff" fill-opacity="1"><g transform="translate(280.506385, 180.285982)"><g><path d="M 4.375 -34.625 L 2.734375 -39.53125 L 11 -39.53125 C 12.90625 -39.53125 14.570312 -39.335938 16 -38.953125 C 17.4375 -38.566406 18.644531 -37.929688 19.625 -37.046875 C 20.601562 -36.160156 21.332031 -34.972656 21.8125 -33.484375 C 22.289062 -32.003906 22.53125 -30.175781 22.53125 -28 C 22.53125 -25.3125 22.164062 -23.171875 21.4375 -21.578125 C 20.707031 -19.984375 19.613281 -18.773438 18.15625 -17.953125 L 22.53125 0 L 15.90625 0 L 11.953125 -16.53125 C 11.722656 -16.476562 11.40625 -16.453125 11 -16.453125 L 11 0 L 4.375 0 Z M 11 -19.671875 C 12.082031 -19.671875 12.976562 -19.90625 13.6875 -20.375 C 14.394531 -20.851562 14.953125 -21.488281 15.359375 -22.28125 C 15.773438 -23.082031 16.0625 -23.972656 16.21875 -24.953125 C 16.375 -25.929688 16.453125 -26.945312 16.453125 -28 C 16.453125 -29.039062 16.375 -30.050781 16.21875 -31.03125 C 16.0625 -32.007812 15.773438 -32.894531 15.359375 -33.6875 C 14.953125 -34.488281 14.394531 -35.128906 13.6875 -35.609375 C 12.976562 -36.085938 12.082031 -36.347656 11 -36.390625 Z M 11 -19.671875 "/></g></g></g><g fill="#ffffff" fill-opacity="1"><g transform="translate(305.76526, 180.285982)"><g><path d="M 3.40625 -39.53125 L 18.234375 -39.53125 L 16.59375 -36.25 L 10.03125 -36.25 L 10.03125 -24.71875 L 16.59375 -24.71875 L 14.953125 -21.4375 L 10.03125 -21.4375 L 10.03125 -3.28125 L 18.234375 -3.28125 L 18.234375 0 L 3.40625 0 Z M 3.40625 -39.53125 "/></g></g></g><g fill="#ffffff" fill-opacity="1"><g transform="translate(326.040613, 180.285982)"><g><path d="M 9.5625 0 C 8.46875 0 7.472656 -0.222656 6.578125 -0.671875 C 5.691406 -1.128906 4.941406 -1.644531 4.328125 -2.21875 C 3.710938 -2.789062 3.222656 -3.359375 2.859375 -3.921875 C 2.503906 -4.492188 2.253906 -4.894531 2.109375 -5.125 L 4.78125 -7.3125 C 5.09375 -6.851562 5.429688 -6.460938 5.796875 -6.140625 C 6.117188 -5.867188 6.460938 -5.617188 6.828125 -5.390625 C 7.191406 -5.160156 7.601562 -5.046875 8.0625 -5.046875 C 8.96875 -5.046875 9.679688 -5.46875 10.203125 -6.3125 C 10.734375 -7.15625 11 -8.171875 11 -9.359375 C 11 -9.628906 11 -9.890625 11 -10.140625 C 11 -10.390625 10.953125 -10.648438 10.859375 -10.921875 C 10.492188 -12.421875 9.832031 -13.890625 8.875 -15.328125 C 7.914062 -16.765625 6.925781 -18.242188 5.90625 -19.765625 C 4.882812 -21.296875 3.984375 -22.898438 3.203125 -24.578125 C 2.429688 -26.265625 2.046875 -28.109375 2.046875 -30.109375 C 2.003906 -31.523438 2.1875 -32.8125 2.59375 -33.96875 C 3 -35.132812 3.566406 -36.125 4.296875 -36.9375 C 5.023438 -37.757812 5.890625 -38.394531 6.890625 -38.84375 C 7.898438 -39.300781 8.972656 -39.53125 10.109375 -39.53125 C 11.203125 -39.53125 12.191406 -39.300781 13.078125 -38.84375 C 13.960938 -38.394531 14.710938 -37.882812 15.328125 -37.3125 C 15.941406 -36.75 16.429688 -36.179688 16.796875 -35.609375 C 17.160156 -35.035156 17.410156 -34.632812 17.546875 -34.40625 L 14.890625 -32.234375 C 14.890625 -32.234375 14.796875 -32.34375 14.609375 -32.5625 C 14.429688 -32.789062 14.179688 -33.050781 13.859375 -33.34375 C 13.546875 -33.644531 13.191406 -33.910156 12.796875 -34.140625 C 12.410156 -34.367188 11.992188 -34.484375 11.546875 -34.484375 C 10.628906 -34.484375 9.910156 -34.082031 9.390625 -33.28125 C 8.867188 -32.488281 8.609375 -31.5 8.609375 -30.3125 C 8.609375 -29.71875 8.675781 -29.148438 8.8125 -28.609375 C 9.175781 -27.109375 9.832031 -25.640625 10.78125 -24.203125 C 11.738281 -22.773438 12.726562 -21.296875 13.75 -19.765625 C 14.78125 -18.242188 15.679688 -16.640625 16.453125 -14.953125 C 17.222656 -13.265625 17.609375 -11.421875 17.609375 -9.421875 C 17.660156 -8.015625 17.476562 -6.726562 17.0625 -5.5625 C 16.65625 -4.40625 16.078125 -3.414062 15.328125 -2.59375 C 14.578125 -1.769531 13.703125 -1.128906 12.703125 -0.671875 C 11.703125 -0.222656 10.65625 0 9.5625 0 Z M 9.5625 0 "/></g></g></g><path fill="#ffffff" d="M 10.132812 131.804688 C 10.132812 131.804688 41.742188 107.722656 54.285156 101.703125 C 66.828125 95.679688 64.820312 96.683594 81.375 80.128906 C 97.933594 63.570312 98.9375 70.09375 111.476562 55.542969 C 124.019531 40.996094 125.523438 27.449219 135.558594 41.496094 C 145.59375 55.542969 148.101562 66.082031 156.128906 52.03125 C 164.15625 37.984375 180.710938 9.890625 186.734375 13.402344 C 192.753906 16.914062 205.894531 37.210938 211.914062 44.789062 C 217.9375 52.375 219.050781 48.804688 223.285156 55.269531 C 227.523438 61.738281 231.535156 62.40625 235.996094 67.984375 C 240.457031 73.558594 258.964844 54.824219 263.421875 50.589844 C 267.886719 46.351562 289.738281 76.007812 300.4375 81.808594 C 311.144531 87.605469 310.921875 93.628906 317.386719 96.746094 C 323.855469 99.871094 367.335938 134.75 361.09375 131.804688 C 354.847656 128.859375 351.949219 122.613281 346.601562 123.28125 C 341.246094 123.953125 340.132812 130.417969 335.675781 123.953125 C 331.210938 117.484375 334.78125 114.140625 321.179688 106.335938 C 307.578125 98.53125 303.113281 93.179688 298.210938 95.855469 C 293.304688 98.53125 303.113281 105.667969 305.121094 112.804688 C 307.132812 119.9375 312.484375 133.316406 307.355469 124.398438 C 302.226562 115.480469 302.226562 112.578125 294.867188 106.558594 C 287.503906 100.539062 289.066406 101.429688 285.277344 97.417969 C 281.484375 93.402344 279.257812 86.9375 275.464844 79.800781 C 271.675781 72.664062 272.566406 64.191406 269.890625 67.984375 C 267.214844 71.773438 267.214844 71.773438 267.214844 71.773438 C 267.214844 71.773438 271.230469 76.457031 270.113281 81.140625 C 269 85.820312 274.128906 92.511719 275.464844 96.972656 C 276.800781 101.429688 285.054688 113.917969 286.390625 118.824219 C 287.730469 123.730469 289.738281 129.75 281.710938 115.703125 C 273.679688 101.652344 276.132812 108.789062 271.007812 103.660156 C 265.878906 98.53125 268.332031 90.058594 265.878906 93.628906 C 263.421875 97.195312 262.308594 98.980469 259.1875 105.21875 C 256.066406 111.464844 246.476562 110.574219 245.585938 116.148438 C 244.695312 121.722656 237.109375 126.851562 238.894531 121.945312 C 240.679688 117.039062 236.886719 127.074219 245.585938 109.011719 C 254.28125 90.949219 255.175781 95.855469 254.726562 87.382812 C 254.28125 78.910156 258.183594 74.226562 255.28125 75.007812 C 252.386719 75.789062 250.601562 79.578125 247.144531 83.480469 C 243.691406 87.382812 240.121094 90.726562 239.789062 94.183594 C 239.453125 97.640625 237 103.324219 237.671875 99.089844 C 238.339844 94.851562 238.5625 94.964844 238.113281 91.84375 C 237.671875 88.71875 240.570312 88.386719 241.460938 83.367188 C 242.351562 78.351562 253.054688 71.4375 252.609375 70.546875 C 252.164062 69.65625 246.144531 70.992188 242.574219 74.113281 C 239.007812 77.238281 238.226562 82.367188 232.761719 86.046875 C 227.300781 89.722656 220.164062 94.628906 215.707031 99.3125 C 211.246094 103.996094 204.777344 101.652344 204.109375 112.132812 C 203.441406 122.613281 205.003906 134.878906 202.996094 127.519531 C 200.988281 120.164062 201.433594 116.148438 199.875 118.378906 C 198.3125 120.609375 197.417969 123.058594 192.738281 126.40625 C 188.054688 129.75 181.363281 134.433594 184.933594 129.082031 C 188.5 123.730469 184.933594 131.980469 192.738281 121.277344 C 200.542969 110.574219 190.0625 112.804688 198.980469 104.777344 C 207.902344 96.746094 231.316406 79.800781 231.089844 77.125 C 230.867188 74.449219 231.089844 76.007812 223.957031 80.691406 C 216.820312 85.375 208.347656 86.9375 202.101562 94.070312 C 195.859375 101.207031 180.695312 102.101562 181.808594 111.910156 C 182.925781 121.722656 185.378906 121.054688 176.234375 115.480469 C 167.09375 109.90625 177.796875 108.34375 163.300781 116.148438 C 148.808594 123.953125 143.457031 119.269531 143.457031 124.621094 C 143.457031 129.972656 128.738281 140.007812 125.394531 139.113281 C 122.050781 138.226562 123.609375 139.671875 127.847656 137.21875 C 132.082031 134.769531 131.527344 133.652344 133.980469 131.867188 C 136.433594 130.085938 138.4375 126.738281 137.660156 125.738281 C 136.878906 124.730469 134.871094 123.953125 131.082031 124.957031 C 127.289062 125.960938 123.386719 126.515625 121.15625 124.398438 C 118.925781 122.28125 117.253906 120.386719 122.941406 121.945312 C 128.628906 123.507812 124.835938 119.269531 135.429688 117.375 C 146.019531 115.480469 141.113281 112.914062 154.160156 107.117188 C 167.203125 101.320312 170.550781 101.652344 175.230469 99.089844 C 179.914062 96.523438 181.808594 94.851562 184.710938 88.609375 C 187.609375 82.367188 190.0625 85.265625 189.171875 78.796875 C 188.277344 72.332031 190.0625 72.886719 184.597656 75.007812 C 179.132812 77.125 180.808594 71.105469 175.121094 78.460938 C 169.433594 85.820312 168.320312 81.25 162.1875 87.828125 C 156.054688 94.40625 145.796875 104.332031 147.136719 100.316406 C 148.472656 96.300781 153.269531 97.417969 154.269531 92.066406 C 155.273438 86.714844 162.074219 80.386719 166.3125 76.136719 C 170.550781 71.882812 170.882812 73.113281 178.132812 63.855469 C 185.378906 54.605469 194.519531 48.472656 190.617188 48.359375 C 186.714844 48.25 186.714844 44.457031 185.042969 47.582031 C 183.371094 50.699219 182.589844 50.253906 179.023438 54.046875 C 175.457031 57.835938 172.109375 57.054688 170.214844 62.074219 C 168.320312 67.089844 171.105469 64.527344 163.746094 71.660156 C 156.390625 78.796875 150.925781 87.714844 152.042969 82.699219 C 153.15625 77.683594 154.605469 80.132812 156.390625 73.113281 C 158.171875 66.085938 162.96875 65.753906 167.203125 59.84375 C 171.441406 53.9375 185.378906 44.902344 185.15625 38.996094 C 184.933594 33.085938 186.605469 32.972656 185.042969 30.519531 C 183.484375 28.066406 184.039062 22.382812 181.363281 25.394531 C 178.6875 28.402344 177.683594 29.292969 172.78125 36.542969 C 167.875 43.789062 168.65625 38.996094 163.414062 47.242188 C 158.171875 55.496094 155.164062 56.5 150.367188 64.304688 C 150.367188 64.304688 150.425781 67.453125 141.5625 76.136719 C 132.699219 84.820312 133.699219 82.8125 128.015625 93.347656 C 122.328125 103.886719 120.152344 101.710938 120.152344 108.066406 C 120.152344 108.066406 120.210938 108.289062 120.433594 110.515625 C 120.65625 112.75 122.886719 116.59375 122.160156 116.761719 C 121.4375 116.929688 121.324219 114.085938 119.316406 113.25 C 117.3125 112.414062 119.429688 110.738281 115.027344 112.523438 C 110.621094 114.308594 113.464844 111.855469 110.566406 110.015625 C 107.667969 108.175781 114.410156 103.269531 113.800781 100.539062 C 113.1875 97.808594 116.363281 97.082031 115.191406 94.40625 C 114.019531 91.730469 115.804688 91.230469 113.855469 90.394531 C 111.902344 89.554688 101.421875 103.714844 95.902344 104.21875 C 90.382812 104.71875 83.027344 116.257812 81.355469 116.761719 C 79.683594 117.261719 75.332031 121.945312 76.167969 119.492188 C 77.003906 117.039062 79.683594 116.59375 82.359375 112.972656 C 85.03125 109.347656 86.257812 103.886719 89.882812 102.15625 C 93.507812 100.425781 99.863281 97.472656 103.152344 92.621094 C 106.441406 87.773438 110.398438 84.820312 110.285156 81.75 C 110.175781 78.6875 121.324219 72.609375 124.667969 66.753906 C 128.015625 60.902344 133.03125 62.742188 133.199219 57.722656 C 133.367188 52.707031 133.535156 50.867188 131.695312 50.03125 C 129.855469 49.195312 131.359375 54.714844 128.179688 55.71875 C 125.003906 56.722656 124.167969 58.894531 121.992188 60.570312 C 119.820312 62.238281 118.984375 65.585938 117.144531 67.757812 C 115.304688 69.933594 111.792969 69.765625 110.121094 73.445312 C 108.445312 77.125 107.835938 74.394531 111.121094 69.433594 C 114.410156 64.46875 115.472656 64.527344 118.480469 61.570312 C 121.492188 58.617188 125.117188 52.261719 127.625 50.757812 C 130.132812 49.25 130.132812 49.363281 129.519531 46.742188 C 128.90625 44.121094 128.683594 42.949219 127.625 42.5625 C 126.566406 42.171875 125.226562 42.226562 122.886719 46.183594 C 120.542969 50.144531 115.25 55.160156 111.902344 57.722656 C 108.558594 60.289062 111.011719 59.84375 102.984375 65.195312 C 94.957031 70.546875 98.414062 71.214844 89.9375 77.011719 C 81.464844 82.8125 79.515625 83.648438 80.015625 90.335938 C 80.519531 97.027344 73.324219 99.871094 73.828125 107.230469 C 74.328125 114.589844 72.992188 129.304688 71.652344 121.777344 C 70.316406 114.253906 69.144531 114.589844 68.644531 109.070312 C 68.140625 103.550781 68.808594 98.699219 64.460938 101.039062 C 60.113281 103.382812 61.621094 100.875 53.089844 106.558594 C 44.5625 112.246094 46.402344 108.066406 37.535156 115.257812 C 28.671875 122.449219 7.652344 135.972656 10.132812 131.804688 " fill-opacity="1" fill-rule="nonzero"/></svg>